<svg width="18" height="21" viewBox="0 0 18 21" fill="none" xmlns="http://www.w3.org/2000/svg">
<path d="M17.01 14.2679C15.78 14.2679 14.59 14.0435 13.48 13.6395C13.13 13.5049 12.74 13.6059 12.47 13.9088L10.9 16.1191C8.07 14.6045 5.42 11.7434 4.01 8.45598L5.96 6.59348C6.23 6.27933 6.31 5.84175 6.2 5.44906C5.83 4.20365 5.64 2.86849 5.64 1.48845C5.64 0.882579 5.19 0.377686 4.65 0.377686H1.19C0.65 0.377686 0 0.646962 0 1.48845C0 11.9117 7.73 20.5734 17.01 20.5734C17.72 20.5734 18 19.8666 18 19.2495V15.3786C18 14.7728 17.55 14.2679 17.01 14.2679Z" fill="#0028C8"/>
</svg>
