<svg width="270" height="66" viewBox="0 0 270 66" fill="none" xmlns="http://www.w3.org/2000/svg">
<path d="M52.03 27.1021C52.03 28.8041 52.536 30.1501 53.527 31.1521C54.529 32.1541 55.929 32.6491 57.717 32.6491C58.655 32.6491 59.485 32.4991 60.196 32.1761C60.895 31.8631 61.477 31.4431 61.941 30.9141C62.404 30.3881 62.748 29.7831 62.985 29.0841C63.211 28.3951 63.33 27.6721 63.33 26.9081C63.33 25.1191 62.835 23.7291 61.833 22.7271C60.831 21.7261 59.441 21.2301 57.653 21.2301C56.706 21.2301 55.876 21.3921 55.175 21.7051C54.463 22.0181 53.882 22.4471 53.419 22.9761C52.956 23.5151 52.611 24.1401 52.373 24.8611C52.147 25.5731 52.03 26.3271 52.03 27.1021ZM50.737 52.8281C50.737 54.0661 51.362 54.9821 52.612 55.5641C53.872 56.1561 55.628 56.4471 57.901 56.4471C59.355 56.4471 60.583 56.3181 61.574 56.0371C62.576 55.7671 63.395 55.4141 64.02 54.9711C64.655 54.5301 65.108 54.0121 65.376 53.4201C65.656 52.8281 65.796 52.2251 65.796 51.5881C65.796 51.0291 65.656 50.5431 65.398 50.1561C65.139 49.7671 64.762 49.4451 64.289 49.1761C63.815 48.9181 63.265 48.7131 62.619 48.5721C61.984 48.4431 61.272 48.3451 60.486 48.3141L53.7 48.1831C53.096 48.6051 52.59 49.0031 52.202 49.3801C51.814 49.7571 51.513 50.1341 51.287 50.4991C51.072 50.8661 50.92 51.2431 50.845 51.6201C50.77 51.9971 50.737 52.3961 50.737 52.8281ZM68.888 22.1141C69.469 22.8471 69.891 23.6221 70.126 24.4301C70.374 25.2381 70.493 26.0681 70.493 26.9091C70.493 28.6961 70.18 30.2801 69.566 31.6481C68.941 33.0161 68.069 34.1601 66.938 35.0861C65.817 36.0121 64.47 36.7111 62.898 37.1861C61.335 37.6611 59.602 37.8971 57.716 37.8971C56.596 37.8971 55.563 37.7901 54.614 37.5631C53.676 37.3361 52.955 37.0901 52.469 36.7881C52.114 37.1431 51.812 37.5421 51.553 37.9741C51.305 38.4041 51.176 38.9001 51.176 39.4391C51.176 39.7851 51.262 40.1191 51.434 40.4531C51.596 40.7871 51.844 41.0881 52.167 41.3571C52.501 41.6151 52.89 41.8301 53.341 42.0031C53.794 42.1631 54.3 42.2611 54.871 42.2821L62.476 42.5611C64.177 42.6061 65.718 42.8211 67.097 43.2071C68.476 43.6071 69.66 44.1561 70.652 44.8671C71.643 45.5881 72.398 46.4511 72.936 47.4721C73.475 48.4971 73.744 49.6601 73.744 50.9641C73.744 52.4501 73.41 53.8601 72.731 55.1851C72.063 56.5111 71.04 57.6641 69.683 58.6441C68.325 59.6241 66.645 60.4001 64.62 60.9601C62.605 61.5301 60.257 61.8101 57.585 61.8101C55 61.8101 52.77 61.6071 50.907 61.1971C49.043 60.7891 47.524 60.2171 46.329 59.4841C45.143 58.7421 44.26 57.8691 43.7 56.8451C43.129 55.8221 42.848 54.7001 42.848 53.4841C42.848 52.7521 42.934 52.0621 43.128 51.4371C43.322 50.8021 43.602 50.1991 43.979 49.6171C44.357 49.0351 44.831 48.4741 45.402 47.9261C45.972 47.3871 46.64 46.8381 47.416 46.2891C46.393 45.6971 45.607 44.9431 45.068 44.0161C44.529 43.0901 44.27 42.0981 44.27 41.0531C44.27 40.3321 44.357 39.6641 44.55 39.0491C44.734 38.4241 44.982 37.8321 45.293 37.2621C45.595 36.6901 45.95 36.1531 46.349 35.6251C46.747 35.0961 47.167 34.5801 47.611 34.0721C46.835 33.2961 46.188 32.3591 45.671 31.2491C45.154 30.1501 44.896 28.7621 44.896 27.1031C44.896 25.3151 45.219 23.7201 45.854 22.3201C46.501 20.9201 47.395 19.7461 48.527 18.7871C49.658 17.8281 51.015 17.1061 52.578 16.6111C54.15 16.1151 55.863 15.8691 57.716 15.8691C58.654 15.8691 59.57 15.9121 60.442 16.0081C61.315 16.1051 62.112 16.2671 62.823 16.4921H76.386L72.816 22.1151H68.888V22.1141ZM40.694 16.5141V42.5601H49.935V48.5601H28.99L32.798 42.5601V16.5141H40.694ZM3.125 48.5601V43.1971L19.227 22.5581L3.878 22.5191L7.713 16.4911H28.977V21.9211L12.861 42.5521H28.989L28.99 48.5601H3.125Z" fill="white"/>
<path d="M40.6929 11.48H32.7969V3.85201V3.58301H40.6929V11.48Z" fill="white"/>
<path d="M257.34 44.2261C256.992 44.1261 256.623 44.0521 256.234 44.0051C255.842 43.9581 255.432 43.9351 255 43.9351C253.919 43.9351 253.075 44.1671 252.464 44.6341C252.005 44.9821 251.776 45.4001 251.776 45.8821C251.776 46.3331 251.951 46.7121 252.301 47.0171C252.655 47.3261 253.166 47.4801 253.841 47.4801C254.483 47.4801 255.081 47.3491 255.635 47.0931C256.186 46.8351 256.754 46.4271 257.341 45.8641V44.2261H257.34ZM257.34 47.9311V46.8571C256.257 47.7671 255.105 48.2241 253.873 48.2241C252.981 48.2241 252.285 47.9971 251.783 47.5461C251.281 47.0931 251.029 46.5401 251.029 45.8821C251.029 45.1631 251.359 44.5341 252.022 43.9951C252.684 43.4561 253.649 43.1901 254.919 43.1901C255.261 43.1901 255.633 43.2111 256.035 43.2561C256.437 43.2991 256.873 43.3671 257.339 43.4611V42.2581C257.339 41.8501 257.149 41.4961 256.771 41.1921C256.393 40.8931 255.827 40.7431 255.071 40.7431C254.49 40.7431 253.679 40.9131 252.633 41.2491C252.445 41.3081 252.324 41.3371 252.271 41.3371C252.176 41.3371 252.094 41.3021 252.026 41.2301C251.959 41.1621 251.925 41.0701 251.925 40.9641C251.925 40.8641 251.955 40.7861 252.014 40.7261C252.094 40.6381 252.431 40.5171 253.015 40.3631C253.938 40.1151 254.632 39.9901 255.108 39.9901C256.046 39.9901 256.778 40.2221 257.303 40.6851C257.83 41.1481 258.094 41.6751 258.094 42.2591V47.1871H259.085C259.271 47.1871 259.398 47.2201 259.477 47.2911C259.551 47.3571 259.59 47.4471 259.59 47.5591C259.59 47.6661 259.551 47.7541 259.477 47.8271C259.398 47.8951 259.271 47.9321 259.085 47.9321H257.34V47.9311ZM247.564 40.2571V40.9211L241.989 47.1871H247.022V46.1581C247.022 45.9801 247.056 45.8531 247.125 45.7791C247.192 45.7031 247.282 45.6621 247.395 45.6621C247.506 45.6621 247.601 45.7031 247.67 45.7791C247.742 45.8531 247.775 45.9801 247.775 46.1581L247.766 47.9311H240.959V47.2651L246.507 41.0091H241.882V42.0191C241.882 42.1971 241.846 42.3241 241.777 42.4021C241.704 42.4761 241.616 42.5151 241.51 42.5151C241.399 42.5151 241.308 42.4761 241.235 42.4021C241.166 42.3241 241.129 42.1971 241.129 42.0191V40.2571H247.564ZM236.519 41.0091V40.7611C236.519 40.5771 236.555 40.4471 236.624 40.3721C236.696 40.2961 236.784 40.2571 236.891 40.2571C237.002 40.2571 237.097 40.2961 237.165 40.3721C237.235 40.4461 237.271 40.5771 237.271 40.7611V42.4471C237.265 42.6291 237.229 42.7601 237.162 42.8341C237.094 42.9141 237.002 42.9531 236.891 42.9531C236.79 42.9531 236.705 42.9161 236.64 42.8491C236.57 42.7811 236.531 42.6671 236.519 42.5071C236.483 42.0871 236.207 41.6891 235.69 41.3121C235.172 40.9331 234.477 40.7441 233.603 40.7441C232.499 40.7441 231.661 41.0901 231.085 41.7811C230.514 42.4701 230.227 43.2631 230.227 44.1561C230.227 45.1191 230.544 45.9141 231.176 46.5411C231.809 47.1661 232.625 47.4801 233.629 47.4801C234.207 47.4801 234.797 47.3731 235.4 47.1601C235.999 46.9491 236.54 46.6071 237.024 46.1311C237.148 46.0141 237.256 45.9571 237.354 45.9571C237.454 45.9571 237.538 45.9901 237.605 46.0571C237.674 46.1251 237.708 46.2111 237.708 46.3111C237.708 46.5651 237.408 46.8851 236.813 47.2761C235.847 47.9091 234.777 48.2251 233.594 48.2251C232.396 48.2251 231.409 47.8421 230.637 47.0771C229.866 46.3111 229.483 45.3431 229.483 44.1671C229.483 42.9661 229.876 41.9701 230.666 41.1811C231.455 40.3881 232.447 39.9921 233.648 39.9921C234.789 39.9901 235.745 40.3301 236.519 41.0091ZM221.629 40.2571V42.1341C222.598 41.2611 223.323 40.6981 223.805 40.4461C224.285 40.1941 224.73 40.0671 225.139 40.0671C225.583 40.0671 225.994 40.2191 226.375 40.5161C226.756 40.8151 226.947 41.0411 226.947 41.1921C226.947 41.3071 226.907 41.3991 226.835 41.4751C226.762 41.5471 226.668 41.5841 226.557 41.5841C226.496 41.5841 226.449 41.5741 226.406 41.5531C226.364 41.5321 226.288 41.4651 226.176 41.3541C225.968 41.1471 225.789 41.0061 225.635 40.9301C225.481 40.8521 225.329 40.8111 225.185 40.8111C224.858 40.8111 224.467 40.9421 224.007 41.2021C223.551 41.4641 222.758 42.0981 221.63 43.1081V47.1861H224.927C225.109 47.1861 225.239 47.2191 225.318 47.2901C225.394 47.3561 225.433 47.4461 225.433 47.5581C225.433 47.6651 225.394 47.7531 225.318 47.8261C225.239 47.8941 225.109 47.9311 224.927 47.9311H219.086C218.907 47.9311 218.78 47.8981 218.704 47.8271C218.629 47.7611 218.589 47.6731 218.589 47.5671C218.589 47.4671 218.626 47.3831 218.701 47.3131C218.774 47.2471 218.901 47.2131 219.086 47.2131H220.885V41.0081H219.513C219.334 41.0081 219.206 40.9731 219.131 40.9031C219.052 40.8311 219.017 40.7411 219.017 40.6281C219.017 40.5231 219.052 40.4311 219.125 40.3621C219.2 40.2921 219.328 40.2571 219.513 40.2571H221.629ZM213.767 44.2261C213.418 44.1261 213.049 44.0501 212.66 44.0051C212.27 43.9581 211.858 43.9351 211.426 43.9351C210.347 43.9351 209.502 44.1691 208.892 44.6341C208.434 44.9821 208.202 45.4001 208.202 45.8821C208.202 46.3331 208.378 46.7121 208.729 47.0171C209.082 47.3261 209.593 47.4801 210.268 47.4801C210.91 47.4801 211.509 47.3491 212.062 47.0931C212.613 46.8371 213.182 46.4271 213.768 45.8641V44.2261H213.767ZM213.767 47.9311V46.8571C212.684 47.7671 211.532 48.2241 210.3 48.2241C209.407 48.2241 208.71 47.9971 208.209 47.5461C207.707 47.0951 207.456 46.5401 207.456 45.8821C207.456 45.1631 207.786 44.5341 208.448 43.9951C209.11 43.4581 210.076 43.1901 211.346 43.1901C211.688 43.1901 212.061 43.2131 212.461 43.2561C212.863 43.2991 213.3 43.3671 213.766 43.4611V42.2581C213.766 41.8501 213.576 41.4941 213.198 41.1921C212.821 40.8931 212.254 40.7431 211.498 40.7431C210.917 40.7431 210.105 40.9131 209.06 41.2491C208.873 41.3081 208.751 41.3371 208.697 41.3371C208.603 41.3371 208.521 41.3021 208.452 41.2301C208.386 41.1621 208.352 41.0701 208.352 40.9641C208.352 40.8641 208.383 40.7861 208.44 40.7261C208.522 40.6381 208.859 40.5171 209.442 40.3631C210.364 40.1171 211.06 39.9901 211.535 39.9901C212.473 39.9901 213.205 40.2241 213.731 40.6851C214.256 41.1481 214.521 41.6771 214.521 42.2591V47.1871H215.512C215.697 47.1871 215.825 47.2201 215.903 47.2911C215.978 47.3571 216.018 47.4471 216.018 47.5591C216.018 47.6661 215.979 47.7561 215.903 47.8271C215.826 47.8971 215.696 47.9321 215.512 47.9321H213.767V47.9311ZM202.62 44.1111C202.62 43.1681 202.298 42.3691 201.661 41.7181C201.025 41.0681 200.266 40.7431 199.386 40.7431C198.5 40.7431 197.738 41.0671 197.1 41.7181C196.461 42.3661 196.141 43.1671 196.141 44.1111C196.141 45.0501 196.461 45.8471 197.1 46.5001C197.738 47.1541 198.5 47.4801 199.386 47.4801C200.267 47.4801 201.026 47.1521 201.661 46.5001C202.297 45.8471 202.62 45.0501 202.62 44.1111ZM203.373 36.8081V47.1871H204.366C204.55 47.1871 204.68 47.2221 204.756 47.2911C204.83 47.3571 204.871 47.4471 204.871 47.5591C204.871 47.6661 204.831 47.7541 204.756 47.8271C204.682 47.8951 204.549 47.9321 204.366 47.9321H202.62V46.4531C201.758 47.6331 200.66 48.2241 199.332 48.2241C198.657 48.2241 198.013 48.0441 197.396 47.6851C196.78 47.3301 196.29 46.8221 195.932 46.1581C195.574 45.4981 195.396 44.8161 195.396 44.1111C195.396 43.4041 195.574 42.7181 195.932 42.0601C196.289 41.4001 196.779 40.8901 197.396 40.5331C198.012 40.1721 198.66 39.9901 199.34 39.9901C200.641 39.9901 201.734 40.5801 202.619 41.7631V37.5601H201.627C201.443 37.5601 201.314 37.5251 201.236 37.4561C201.16 37.3841 201.122 37.2921 201.122 37.1791C201.122 37.0741 201.158 36.9861 201.236 36.9131C201.312 36.8451 201.442 36.8081 201.627 36.8081H203.373ZM192.241 44.1111C192.241 43.1791 191.908 42.3821 191.243 41.7261C190.577 41.0701 189.772 40.7441 188.829 40.7441C187.882 40.7441 187.077 41.0741 186.411 41.7321C185.75 42.3881 185.416 43.1851 185.416 44.1111C185.416 45.0331 185.75 45.8261 186.411 46.4861C187.077 47.1481 187.882 47.4801 188.829 47.4801C189.772 47.4801 190.577 47.1501 191.243 46.4921C191.908 45.8321 192.241 45.0391 192.241 44.1111ZM192.994 44.1111C192.994 45.2461 192.587 46.2161 191.775 47.0171C190.961 47.8221 189.984 48.2241 188.837 48.2241C187.678 48.2241 186.693 47.8201 185.884 47.0151C185.076 46.2081 184.671 45.2401 184.671 44.1111C184.671 42.9761 185.077 42.0041 185.884 41.2011C186.695 40.3921 187.678 39.9901 188.837 39.9901C189.983 39.9901 190.961 40.3921 191.775 41.1931C192.588 41.9981 192.994 42.9701 192.994 44.1111ZM181.586 43.8631C181.586 43.0061 181.273 42.2711 180.651 41.6601C180.028 41.0511 179.265 40.7441 178.367 40.7441C177.466 40.7441 176.7 41.0531 176.074 41.6661C175.448 42.2811 175.133 43.0121 175.133 43.8631C175.133 44.7181 175.448 45.4571 176.074 46.0721C176.7 46.6851 177.466 46.9901 178.367 46.9901C179.259 46.9901 180.019 46.6831 180.645 46.0741C181.271 45.4621 181.586 44.7241 181.586 43.8631ZM175.133 40.2571V41.6111C175.578 41.0741 176.053 40.6721 176.562 40.3981C177.07 40.1271 177.668 39.9901 178.359 39.9901C179.094 39.9901 179.769 40.1641 180.389 40.5061C181.008 40.8461 181.489 41.3261 181.827 41.9361C182.168 42.5471 182.339 43.1921 182.339 43.8641C182.339 44.9341 181.953 45.8481 181.19 46.6081C180.428 47.3661 179.487 47.7451 178.368 47.7451C177.04 47.7451 175.96 47.2061 175.134 46.1241V50.6101H176.944C177.12 50.6101 177.248 50.6411 177.325 50.7101C177.402 50.7791 177.44 50.8701 177.44 50.9811C177.44 51.0881 177.402 51.1761 177.325 51.2491C177.248 51.3191 177.119 51.3531 176.944 51.3531H173.39C173.211 51.3531 173.083 51.3201 173.008 51.2511C172.934 51.1851 172.893 51.0951 172.893 50.9811C172.893 50.8701 172.932 50.7781 173.008 50.7101C173.082 50.6421 173.21 50.6101 173.39 50.6101H174.391V41.0101H173.39C173.211 41.0101 173.082 40.9751 173.008 40.9051C172.933 40.8331 172.893 40.7431 172.893 40.6301C172.893 40.5251 172.933 40.4331 173.008 40.3641C173.083 40.2941 173.21 40.2591 173.39 40.2591H175.133V40.2571ZM169.503 40.7441C169.503 40.5701 169.539 40.4451 169.609 40.3731C169.68 40.2971 169.769 40.2581 169.875 40.2581C169.987 40.2581 170.081 40.2971 170.151 40.3731C170.222 40.4491 170.255 40.5781 170.255 40.7621V42.0391C170.255 42.2131 170.223 42.3421 170.151 42.4201C170.082 42.4961 169.987 42.5351 169.875 42.5351C169.775 42.5351 169.69 42.5021 169.624 42.4391C169.556 42.3731 169.518 42.2651 169.503 42.1171C169.473 41.7631 169.287 41.4671 168.956 41.2401C168.472 40.9081 167.83 40.7441 167.032 40.7441C166.2 40.7441 165.553 40.9141 165.09 41.2501C164.742 41.5021 164.567 41.7871 164.567 42.1001C164.567 42.4541 164.778 42.7481 165.191 42.9871C165.473 43.1491 166.01 43.2821 166.803 43.3681C167.836 43.4791 168.556 43.6041 168.956 43.7491C169.528 43.9541 169.954 44.2431 170.235 44.6081C170.517 44.9731 170.656 45.3701 170.656 45.7971C170.656 46.4281 170.352 46.9901 169.742 47.4851C169.134 47.9751 168.242 48.2251 167.068 48.2251C165.891 48.2251 164.929 47.9261 164.179 47.3301C164.179 47.5291 164.167 47.6601 164.143 47.7191C164.12 47.7781 164.075 47.8281 164.013 47.8691C163.951 47.9081 163.882 47.9321 163.807 47.9321C163.698 47.9321 163.611 47.8911 163.54 47.8171C163.47 47.7411 163.432 47.6161 163.432 47.4361V45.9031C163.432 45.7231 163.466 45.5981 163.535 45.5201C163.603 45.4461 163.692 45.4071 163.807 45.4071C163.912 45.4071 164 45.4441 164.076 45.5181C164.148 45.5901 164.185 45.6921 164.185 45.8151C164.185 46.0861 164.256 46.3131 164.391 46.4951C164.598 46.7781 164.927 47.0151 165.379 47.2001C165.83 47.3861 166.383 47.4811 167.04 47.4811C168.008 47.4811 168.729 47.2991 169.203 46.9401C169.675 46.5811 169.911 46.2001 169.911 45.7971C169.911 45.3361 169.672 44.9651 169.194 44.6901C168.711 44.4111 168.005 44.2231 167.079 44.1291C166.154 44.0351 165.49 43.9101 165.089 43.7581C164.688 43.6041 164.374 43.3731 164.151 43.0691C163.926 42.7601 163.812 42.4301 163.812 42.0731C163.812 41.4361 164.126 40.9281 164.752 40.5531C165.378 40.1801 166.125 39.9901 166.993 39.9901C168.025 39.9901 168.86 40.2421 169.503 40.7441ZM159.561 44.1111C159.561 43.1791 159.228 42.3821 158.562 41.7261C157.897 41.0701 157.091 40.7441 156.148 40.7441C155.202 40.7441 154.397 41.0741 153.731 41.7321C153.07 42.3881 152.736 43.1851 152.736 44.1111C152.736 45.0331 153.07 45.8261 153.731 46.4861C154.397 47.1481 155.202 47.4801 156.148 47.4801C157.091 47.4801 157.897 47.1501 158.562 46.4921C159.228 45.8321 159.561 45.0391 159.561 44.1111ZM160.314 44.1111C160.314 45.2461 159.907 46.2161 159.094 47.0171C158.281 47.8221 157.303 48.2241 156.156 48.2241C154.998 48.2241 154.013 47.8201 153.204 47.0151C152.395 46.2081 151.991 45.2401 151.991 44.1111C151.991 42.9761 152.397 42.0041 153.204 41.2011C154.015 40.3921 154.998 39.9901 156.156 39.9901C157.302 39.9901 158.281 40.3921 159.094 41.1931C159.909 41.9981 160.314 42.9701 160.314 44.1111ZM147.763 43.8631C147.763 42.9881 147.463 42.2501 146.865 41.6481C146.264 41.0461 145.548 40.7441 144.714 40.7441C143.882 40.7441 143.163 41.0471 142.569 41.6501C141.973 42.2571 141.673 42.9941 141.673 43.8631C141.673 44.7381 141.974 45.4781 142.569 46.0841C143.164 46.6901 143.882 46.9901 144.714 46.9901C145.548 46.9901 146.265 46.6891 146.865 46.0841C147.463 45.4781 147.763 44.7381 147.763 43.8631ZM147.763 41.6211V40.2581H149.508C149.687 40.2581 149.814 40.2931 149.89 40.3631C149.963 40.4311 150.003 40.5251 150.003 40.6381C150.003 40.7431 149.964 40.8331 149.89 40.9041C149.815 40.9741 149.686 41.0091 149.508 41.0091H148.506V48.4471C148.506 48.9411 148.401 49.3851 148.189 49.7731C148.047 50.0331 147.81 50.3021 147.479 50.5821C147.149 50.8591 146.846 51.0571 146.574 51.1741C146.305 51.2911 145.938 51.3521 145.485 51.3521H143.377C143.199 51.3521 143.072 51.3191 142.996 51.2501C142.919 51.1821 142.88 51.0941 142.88 50.9801C142.88 50.8691 142.918 50.7751 142.996 50.7051C143.071 50.6371 143.198 50.6001 143.377 50.6001L145.513 50.6101C145.949 50.6121 146.344 50.4971 146.696 50.2701C147.045 50.0451 147.339 49.7191 147.567 49.2881C147.698 49.0401 147.764 48.7251 147.764 48.3411V46.1051C146.964 47.2011 145.937 47.7461 144.677 47.7461C143.658 47.7461 142.775 47.3671 142.033 46.6091C141.292 45.8491 140.92 44.9351 140.92 43.8651C140.92 42.7971 141.292 41.8831 142.033 41.1271C142.774 40.3711 143.658 39.9921 144.677 39.9921C145.936 39.9901 146.963 40.5351 147.763 41.6211ZM129.888 44.2261C129.54 44.1261 129.17 44.0521 128.781 44.0051C128.392 43.9581 127.98 43.9351 127.547 43.9351C126.467 43.9351 125.623 44.1671 125.013 44.6341C124.552 44.9821 124.323 45.4001 124.323 45.8821C124.323 46.3331 124.499 46.7121 124.85 47.0171C125.204 47.3261 125.714 47.4801 126.39 47.4801C127.031 47.4801 127.629 47.3491 128.183 47.0931C128.734 46.8351 129.302 46.4271 129.889 45.8641V44.2261H129.888ZM129.888 47.9311V46.8571C128.806 47.7671 127.653 48.2241 126.421 48.2241C125.528 48.2241 124.833 47.9971 124.331 47.5461C123.828 47.0931 123.577 46.5401 123.577 45.8821C123.577 45.1631 123.907 44.5341 124.57 43.9951C125.232 43.4561 126.197 43.1901 127.466 43.1901C127.809 43.1901 128.181 43.2111 128.583 43.2561C128.985 43.2991 129.421 43.3671 129.887 43.4611V42.2581C129.887 41.8501 129.697 41.4961 129.319 41.1921C128.941 40.8931 128.375 40.7431 127.619 40.7431C127.038 40.7431 126.227 40.9131 125.181 41.2491C124.993 41.3081 124.871 41.3371 124.817 41.3371C124.724 41.3371 124.642 41.3021 124.573 41.2301C124.506 41.1621 124.473 41.0701 124.473 40.9641C124.473 40.8641 124.502 40.7861 124.561 40.7261C124.642 40.6381 124.978 40.5171 125.562 40.3631C126.484 40.1151 127.18 39.9901 127.655 39.9901C128.593 39.9901 129.325 40.2221 129.851 40.6851C130.376 41.1481 130.641 41.6751 130.641 42.2591V47.1871H131.632C131.818 47.1871 131.944 47.2201 132.023 47.2911C132.099 47.3571 132.138 47.4471 132.138 47.5591C132.138 47.6661 132.099 47.7541 132.023 47.8271C131.944 47.8951 131.818 47.9321 131.632 47.9321H129.888V47.9311ZM120.51 44.1111C120.51 43.1731 120.187 42.3771 119.542 41.7241C118.9 41.0701 118.147 40.7441 117.282 40.7441C116.42 40.7441 115.666 41.0701 115.022 41.7241C114.377 42.3761 114.057 43.1731 114.057 44.1111C114.057 45.0501 114.377 45.8471 115.022 46.5001C115.666 47.1541 116.419 47.4801 117.282 47.4801C118.147 47.4801 118.9 47.1541 119.542 46.5001C120.187 45.8471 120.51 45.0501 120.51 44.1111ZM114.048 36.8081V41.7461C114.947 40.5741 116.03 39.9901 117.3 39.9901C118.39 39.9901 119.319 40.3851 120.092 41.1741C120.867 41.9631 121.254 42.9321 121.254 44.0781C121.254 45.2341 120.861 46.2171 120.08 47.0171C119.297 47.8221 118.371 48.2241 117.3 48.2241C116.002 48.2241 114.916 47.6381 114.048 46.4701V47.9311H112.303C112.124 47.9311 111.997 47.8941 111.922 47.8261C111.847 47.7541 111.807 47.6661 111.807 47.5581C111.807 47.4471 111.847 47.3571 111.922 47.2901C111.997 47.2201 112.124 47.1861 112.303 47.1861H113.305V37.5601H112.303C112.124 37.5601 111.997 37.5271 111.922 37.4561C111.847 37.3851 111.807 37.2921 111.807 37.1791C111.807 37.0741 111.847 36.9861 111.922 36.9131C111.997 36.8431 112.124 36.8081 112.303 36.8081H114.048ZM108.545 40.2571V40.9211L102.971 47.1871H108.004V46.1581C108.004 45.9801 108.038 45.8531 108.108 45.7791C108.174 45.7031 108.265 45.6621 108.377 45.6621C108.489 45.6621 108.582 45.7031 108.653 45.7791C108.724 45.8531 108.758 45.9821 108.757 46.1581L108.748 47.9311H101.942V47.2651L107.49 41.0091H102.864V42.0191C102.864 42.1951 102.829 42.3241 102.759 42.4021C102.689 42.4781 102.599 42.5151 102.492 42.5151C102.381 42.5151 102.288 42.4781 102.217 42.4021C102.148 42.3241 102.112 42.1971 102.112 42.0191V40.2571H108.545ZM95.4619 40.2571V47.1871H98.3839C98.5699 47.1871 98.6989 47.2201 98.7749 47.2911C98.8539 47.3571 98.8899 47.4471 98.8899 47.5591C98.8899 47.6661 98.8539 47.7541 98.7749 47.8271C98.6999 47.8951 98.5699 47.9321 98.3839 47.9321H91.7919C91.6139 47.9321 91.4869 47.8951 91.4109 47.8271C91.3329 47.7551 91.2969 47.6671 91.2969 47.5591C91.2969 47.4481 91.3329 47.3581 91.4109 47.2911C91.4869 47.2211 91.6139 47.1871 91.7919 47.1871H94.7179V41.0091H92.5459C92.3669 41.0091 92.2399 40.9741 92.1589 40.9041C92.0799 40.8321 92.0399 40.7441 92.0399 40.6381C92.0399 40.5251 92.0799 40.4311 92.1559 40.3631C92.2309 40.2931 92.3609 40.2581 92.5459 40.2581H95.4619V40.2571ZM95.4359 38.3591H94.3369V36.4351H95.4359V38.3591Z" fill="white"/>
<path d="M216.964 21.5342C216.616 21.4342 216.247 21.3622 215.857 21.3132C215.466 21.2682 215.055 21.2442 214.624 21.2442C213.544 21.2442 212.699 21.4752 212.088 21.9422C211.629 22.2902 211.399 22.7072 211.399 23.1922C211.399 23.6432 211.575 24.0202 211.925 24.3252C212.279 24.6352 212.79 24.7892 213.465 24.7892C214.106 24.7892 214.705 24.6592 215.259 24.4012C215.809 24.1432 216.378 23.7352 216.965 23.1722V21.5342H216.964ZM216.964 25.2392V24.1662C215.881 25.0752 214.728 25.5322 213.497 25.5322C212.604 25.5322 211.909 25.3052 211.407 24.8562C210.905 24.4012 210.653 23.8482 210.653 23.1922C210.653 22.4712 210.983 21.8422 211.645 21.3032C212.307 20.7662 213.272 20.4982 214.543 20.4982C214.885 20.4982 215.257 20.5192 215.659 20.5642C216.06 20.6072 216.497 20.6762 216.963 20.7712V19.5662C216.963 19.1582 216.772 18.8032 216.394 18.5022C216.016 18.2022 215.451 18.0512 214.695 18.0512C214.114 18.0512 213.302 18.2202 212.257 18.5572C212.069 18.6182 211.948 18.6452 211.894 18.6452C211.8 18.6452 211.719 18.6122 211.65 18.5392C211.583 18.4692 211.549 18.3792 211.549 18.2722C211.549 18.1722 211.579 18.0932 211.637 18.0342C211.719 17.9462 212.054 17.8252 212.638 17.6712C213.561 17.4232 214.256 17.2992 214.732 17.2992C215.67 17.2992 216.402 17.5322 216.927 17.9952C217.454 18.4572 217.717 18.9832 217.717 19.5672V24.4952H218.709C218.894 24.4952 219.021 24.5282 219.1 24.5992C219.175 24.6652 219.214 24.7552 219.214 24.8692C219.214 24.9742 219.175 25.0622 219.1 25.1352C219.021 25.2042 218.894 25.2402 218.709 25.2402H216.964V25.2392ZM202.419 21.9232V25.2382H200.674C200.495 25.2382 200.368 25.2022 200.293 25.1332C200.214 25.0612 200.178 24.9732 200.178 24.8672C200.178 24.7542 200.214 24.6642 200.293 24.5972C200.368 24.5272 200.495 24.4932 200.674 24.4932H201.675V14.8702H200.674C200.495 14.8702 200.368 14.8372 200.293 14.7652C200.214 14.6952 200.178 14.6012 200.178 14.4902C200.178 14.3842 200.214 14.2962 200.293 14.2222C200.368 14.1542 200.495 14.1172 200.674 14.1172H202.419V20.9782L205.583 18.3182H205.203C205.024 18.3182 204.896 18.2832 204.821 18.2132C204.742 18.1412 204.706 18.0532 204.706 17.9472C204.706 17.8352 204.742 17.7422 204.821 17.6722C204.896 17.6022 205.024 17.5672 205.203 17.5672H207.586C207.768 17.5672 207.898 17.6022 207.976 17.6722C208.052 17.7422 208.091 17.8352 208.091 17.9472C208.091 18.0522 208.052 18.1402 207.976 18.2132C207.898 18.2832 207.768 18.3182 207.586 18.3182H206.727L203.821 20.7482L207.499 24.4962H208.357C208.54 24.4962 208.67 24.5292 208.748 24.6002C208.824 24.6662 208.864 24.7562 208.864 24.8702C208.864 24.9752 208.824 25.0632 208.748 25.1362C208.67 25.2052 208.54 25.2412 208.357 25.2412H205.947C205.768 25.2412 205.641 25.2052 205.566 25.1362C205.488 25.0642 205.451 24.9762 205.451 24.8702C205.451 24.7572 205.488 24.6672 205.566 24.6002C205.641 24.5302 205.768 24.4962 205.947 24.4962H206.47L203.269 21.2082L202.419 21.9232ZM196.166 18.0512C196.166 17.8792 196.202 17.7542 196.271 17.6792C196.343 17.6042 196.431 17.5652 196.538 17.5652C196.65 17.5652 196.744 17.6062 196.813 17.6792C196.884 17.7552 196.919 17.8852 196.919 18.0692V19.3462C196.919 19.5222 196.885 19.6492 196.813 19.7272C196.744 19.8022 196.65 19.8422 196.538 19.8422C196.437 19.8422 196.352 19.8092 196.287 19.7452C196.218 19.6792 196.179 19.5722 196.166 19.4242C196.134 19.0702 195.95 18.7742 195.619 18.5472C195.134 18.2152 194.493 18.0512 193.695 18.0512C192.863 18.0512 192.215 18.2202 191.753 18.5572C191.405 18.8092 191.229 19.0952 191.229 19.4072C191.229 19.7612 191.441 20.0552 191.852 20.2942C192.135 20.4572 192.672 20.5892 193.465 20.6752C194.499 20.7882 195.217 20.9122 195.619 21.0562C196.19 21.2622 196.617 21.5492 196.897 21.9152C197.179 22.2802 197.319 22.6772 197.319 23.1042C197.319 23.7352 197.014 24.2982 196.405 24.7922C195.797 25.2842 194.905 25.5322 193.731 25.5322C192.553 25.5322 191.591 25.2332 190.841 24.6372C190.841 24.8362 190.83 24.9672 190.805 25.0282C190.782 25.0852 190.738 25.1352 190.675 25.1752C190.614 25.2152 190.545 25.2382 190.469 25.2382C190.361 25.2382 190.274 25.1972 190.203 25.1242C190.131 25.0482 190.094 24.9212 190.094 24.7422V23.2092C190.094 23.0292 190.129 22.9042 190.198 22.8282C190.265 22.7512 190.354 22.7132 190.469 22.7132C190.575 22.7132 190.663 22.7492 190.739 22.8242C190.811 22.8962 190.847 22.9972 190.847 23.1212C190.847 23.3922 190.919 23.6192 191.053 23.8022C191.26 24.0842 191.589 24.3212 192.042 24.5072C192.493 24.6922 193.046 24.7882 193.703 24.7882C194.671 24.7882 195.391 24.6072 195.866 24.2472C196.338 23.8872 196.574 23.5052 196.574 23.1032C196.574 22.6422 196.335 22.2712 195.857 21.9962C195.374 21.7162 194.668 21.5292 193.742 21.4352C192.817 21.3422 192.154 21.2172 191.752 21.0642C191.35 20.9102 191.037 20.6792 190.814 20.3742C190.589 20.0662 190.474 19.7362 190.474 19.3792C190.474 18.7442 190.789 18.2342 191.415 17.8592C192.041 17.4862 192.788 17.2972 193.656 17.2972C194.687 17.2982 195.522 17.5492 196.166 18.0512ZM184.707 25.2392L183.788 25.2492L182.147 20.4632L180.517 25.2492L179.594 25.2392L178.051 18.3172H177.688C177.513 18.3172 177.385 18.2822 177.307 18.2122C177.231 18.1402 177.193 18.0492 177.193 17.9372C177.193 17.8322 177.231 17.7422 177.307 17.6712C177.385 17.6012 177.513 17.5662 177.688 17.5662H179.737C179.913 17.5662 180.039 17.6012 180.118 17.6712C180.194 17.7412 180.233 17.8342 180.233 17.9462C180.233 18.0512 180.194 18.1392 180.118 18.2122C180.039 18.2822 179.913 18.3172 179.737 18.3172H178.787L180.109 24.2192L181.694 19.5032H182.581L184.211 24.2192L185.479 18.3172H184.541C184.362 18.3172 184.235 18.2822 184.154 18.2122C184.075 18.1402 184.036 18.0492 184.036 17.9372C184.036 17.8322 184.072 17.7422 184.151 17.6712C184.225 17.6012 184.356 17.5662 184.541 17.5662H186.58C186.761 17.5662 186.891 17.6012 186.97 17.6712C187.046 17.7412 187.085 17.8342 187.085 17.9462C187.085 18.0512 187.046 18.1392 186.97 18.2122C186.891 18.2822 186.761 18.3172 186.58 18.3172H186.223L184.707 25.2392ZM173.987 21.4182C173.987 20.4862 173.654 19.6892 172.989 19.0332C172.324 18.3782 171.518 18.0512 170.575 18.0512C169.628 18.0512 168.823 18.3812 168.158 19.0402C167.496 19.6952 167.163 20.4922 167.163 21.4182C167.163 22.3412 167.496 23.1342 168.158 23.7932C168.823 24.4552 169.628 24.7882 170.575 24.7882C171.518 24.7882 172.324 24.4582 172.989 23.7992C173.654 23.1412 173.987 22.3482 173.987 21.4182ZM174.741 21.4182C174.741 22.5522 174.334 23.5232 173.521 24.3242C172.707 25.1292 171.73 25.5312 170.583 25.5312C169.425 25.5312 168.438 25.1282 167.631 24.3222C166.822 23.5152 166.418 22.5462 166.418 21.4182C166.418 20.2832 166.824 19.3132 167.631 18.5082C168.442 17.7012 169.425 17.2982 170.583 17.2982C171.729 17.2982 172.708 17.6992 173.521 18.5022C174.335 19.3052 174.741 20.2782 174.741 21.4182ZM160.752 17.5652V24.4952H163.674C163.859 24.4952 163.989 24.5282 164.064 24.5992C164.143 24.6652 164.179 24.7552 164.179 24.8692C164.179 24.9742 164.143 25.0622 164.064 25.1352C163.99 25.2042 163.859 25.2402 163.674 25.2402H157.082C156.904 25.2402 156.777 25.2042 156.701 25.1352C156.622 25.0632 156.586 24.9752 156.586 24.8692C156.586 24.7562 156.622 24.6662 156.701 24.5992C156.777 24.5292 156.904 24.4952 157.082 24.4952H160.007V18.3172H157.835C157.657 18.3172 157.53 18.2822 157.448 18.2122C157.369 18.1402 157.33 18.0522 157.33 17.9462C157.33 17.8342 157.369 17.7412 157.445 17.6712C157.52 17.6012 157.651 17.5662 157.835 17.5662H160.752V17.5652ZM160.724 15.6672H159.626V13.7432H160.724V15.6672ZM153.456 21.4182C153.456 20.4802 153.131 19.6862 152.488 19.0312C151.845 18.3792 151.093 18.0512 150.227 18.0512C149.366 18.0512 148.613 18.3782 147.967 19.0312C147.323 19.6832 147.003 20.4802 147.003 21.4182C147.003 22.3592 147.323 23.1542 147.967 23.8092C148.613 24.4612 149.365 24.7882 150.227 24.7882C151.093 24.7882 151.845 24.4602 152.488 23.8092C153.13 23.1552 153.456 22.3602 153.456 21.4182ZM146.994 14.1162V19.0532C147.892 17.8832 148.975 17.2992 150.246 17.2992C151.335 17.2992 152.264 17.6932 153.038 18.4822C153.812 19.2712 154.2 20.2402 154.2 21.3862C154.2 22.5412 153.806 23.5252 153.026 24.3252C152.243 25.1302 151.317 25.5322 150.246 25.5322C148.948 25.5322 147.863 24.9462 146.994 23.7782V25.2392H145.249C145.071 25.2392 144.942 25.2042 144.868 25.1342C144.791 25.0622 144.753 24.9742 144.753 24.8682C144.753 24.7552 144.793 24.6662 144.868 24.5982C144.944 24.5302 145.07 24.4942 145.249 24.4942H146.25V14.8702H145.249C145.071 14.8702 144.944 14.8352 144.868 14.7652C144.793 14.6952 144.753 14.6012 144.753 14.4902C144.753 14.3842 144.791 14.2952 144.868 14.2222C144.942 14.1522 145.07 14.1172 145.249 14.1172H146.994V14.1162ZM138.605 25.2492C138.605 25.3232 138.578 25.3922 138.523 25.4422C138.48 25.4832 138.393 25.5102 138.257 25.5242C138.045 25.5442 137.853 25.6592 137.682 25.8602C137.512 26.0612 137.425 26.2922 137.425 26.5572C137.425 26.7662 137.505 26.9382 137.661 27.0782C137.816 27.2162 138.036 27.2872 138.321 27.2872C138.592 27.2872 138.825 27.2042 139.009 27.0392C139.101 26.9562 139.176 26.9122 139.239 26.9122C139.311 26.9122 139.373 26.9392 139.427 26.9862C139.483 27.0372 139.505 27.1052 139.505 27.1872C139.505 27.3042 139.418 27.4162 139.248 27.5352C138.983 27.7192 138.668 27.8162 138.302 27.8162C137.869 27.8162 137.528 27.6952 137.274 27.4532C137.019 27.2112 136.892 26.8962 136.892 26.5062C136.892 26.0922 137.041 25.7332 137.336 25.4292C137.631 25.1252 137.96 24.9732 138.32 24.9732C138.401 24.9732 138.469 24.9982 138.521 25.0482C138.577 25.0982 138.605 25.1642 138.605 25.2492ZM141.173 20.8252C141.026 20.0062 140.638 19.3372 140.008 18.8232C139.38 18.3092 138.629 18.0522 137.761 18.0522C136.893 18.0522 136.145 18.3082 135.519 18.8142C134.893 19.3222 134.503 19.9952 134.348 20.8262H141.173V20.8252ZM141.926 21.5792H134.339C134.47 22.5412 134.872 23.3192 135.55 23.9052C136.227 24.4912 137.062 24.7892 138.064 24.7892C138.618 24.7892 139.2 24.6962 139.809 24.5152C140.417 24.3322 140.914 24.0882 141.297 23.7882C141.41 23.6982 141.506 23.6552 141.591 23.6552C141.684 23.6552 141.768 23.6902 141.839 23.7622C141.91 23.8362 141.945 23.9232 141.945 24.0262C141.945 24.1262 141.893 24.2212 141.801 24.3172C141.516 24.6122 141.014 24.8872 140.289 25.1452C139.566 25.4012 138.822 25.5322 138.062 25.5322C136.786 25.5322 135.72 25.1142 134.865 24.2782C134.011 23.4422 133.585 22.4282 133.585 21.2442C133.585 20.1612 133.985 19.2352 134.786 18.4602C135.588 17.6872 136.577 17.2992 137.76 17.2992C138.976 17.2992 139.978 17.6962 140.764 18.4912C141.55 19.2862 141.939 20.3152 141.926 21.5792ZM128.053 14.1162L128.063 19.0342L129.675 18.1162C129.811 18.0372 129.911 17.9982 129.977 17.9982C130.083 17.9982 130.171 18.0342 130.242 18.1062C130.313 18.1752 130.349 18.2642 130.349 18.3702C130.349 18.4482 130.328 18.5152 130.292 18.5692C130.253 18.6272 130.171 18.6902 130.047 18.7592L128.053 19.9032V24.4952H130.978C131.161 24.4952 131.291 24.5282 131.37 24.5992C131.445 24.6652 131.485 24.7552 131.485 24.8692C131.485 24.9742 131.445 25.0622 131.37 25.1352C131.291 25.2042 131.161 25.2402 130.978 25.2402H124.384C124.206 25.2402 124.078 25.2042 124.003 25.1352C123.927 25.0632 123.888 24.9752 123.888 24.8692C123.888 24.7562 123.927 24.6662 124.003 24.5992C124.078 24.5292 124.206 24.4952 124.384 24.4952H127.309V20.3302L125.704 21.2532C125.58 21.3212 125.479 21.3582 125.404 21.3582C125.303 21.3582 125.216 21.3212 125.146 21.2472C125.075 21.1742 125.041 21.0862 125.041 20.9872C125.041 20.9072 125.06 20.8412 125.093 20.7872C125.129 20.7292 125.208 20.6662 125.332 20.5962L127.31 19.4712V14.8702H125.165C124.987 14.8702 124.86 14.8372 124.778 14.7652C124.699 14.6952 124.66 14.6012 124.66 14.4902C124.66 14.3842 124.696 14.2962 124.775 14.2222C124.85 14.1542 124.98 14.1172 125.165 14.1172H128.053V14.1162ZM119.288 21.1702C119.288 20.2962 118.988 19.5592 118.389 18.9562C117.787 18.3532 117.074 18.0512 116.239 18.0512C115.408 18.0512 114.689 18.3542 114.093 18.9592C113.497 19.5662 113.198 20.3022 113.198 21.1702C113.198 22.0442 113.497 22.7852 114.093 23.3912C114.689 23.9952 115.407 24.2982 116.239 24.2982C117.074 24.2982 117.788 23.9952 118.389 23.3912C118.988 22.7862 119.288 22.0442 119.288 21.1702ZM119.288 18.9282V17.5652H121.033C121.211 17.5652 121.339 17.6002 121.414 17.6702C121.49 17.7402 121.529 17.8332 121.529 17.9452C121.529 18.0502 121.49 18.1382 121.414 18.2112C121.339 18.2812 121.211 18.3162 121.033 18.3162H120.032V25.7532C120.032 26.2492 119.926 26.6912 119.714 27.0812C119.572 27.3412 119.336 27.6092 119.003 27.8892C118.674 28.1672 118.371 28.3642 118.099 28.4812C117.83 28.6002 117.464 28.6612 117.01 28.6612H114.902C114.723 28.6612 114.596 28.6282 114.52 28.5572C114.442 28.4912 114.406 28.4012 114.406 28.2882C114.406 28.1752 114.442 28.0822 114.52 28.0142C114.596 27.9442 114.723 27.9072 114.902 27.9072L117.038 27.9172C117.474 27.9172 117.87 27.8052 118.221 27.5782C118.573 27.3542 118.863 27.0262 119.092 26.5952C119.222 26.3472 119.289 26.0322 119.289 25.6482V23.4142C118.49 24.5092 117.462 25.0532 116.203 25.0532C115.183 25.0532 114.3 24.6752 113.558 23.9162C112.818 23.1562 112.446 22.2422 112.446 21.1722C112.446 20.1042 112.818 19.1922 113.558 18.4342C114.299 17.6782 115.183 17.3002 116.203 17.3002C117.46 17.2982 118.489 17.8422 119.288 18.9282ZM108.031 21.5342C107.682 21.4342 107.313 21.3622 106.924 21.3132C106.534 21.2682 106.122 21.2442 105.69 21.2442C104.611 21.2442 103.766 21.4752 103.156 21.9422C102.696 22.2902 102.466 22.7072 102.466 23.1922C102.466 23.6432 102.641 24.0202 102.993 24.3252C103.346 24.6352 103.856 24.7892 104.532 24.7892C105.174 24.7892 105.772 24.6592 106.326 24.4012C106.877 24.1432 107.445 23.7352 108.032 23.1722V21.5342H108.031ZM108.031 25.2392V24.1662C106.948 25.0752 105.796 25.5322 104.564 25.5322C103.671 25.5322 102.975 25.3052 102.473 24.8562C101.971 24.4012 101.72 23.8482 101.72 23.1922C101.72 22.4712 102.05 21.8422 102.712 21.3032C103.375 20.7662 104.34 20.4982 105.61 20.4982C105.952 20.4982 106.324 20.5192 106.725 20.5642C107.128 20.6072 107.563 20.6762 108.03 20.7712V19.5662C108.03 19.1582 107.84 18.8032 107.462 18.5022C107.083 18.2022 106.517 18.0512 105.761 18.0512C105.181 18.0512 104.37 18.2202 103.323 18.5572C103.135 18.6182 103.014 18.6452 102.96 18.6452C102.866 18.6452 102.785 18.6122 102.715 18.5392C102.648 18.4692 102.615 18.3792 102.615 18.2722C102.615 18.1722 102.644 18.0932 102.703 18.0342C102.785 17.9462 103.12 17.8252 103.704 17.6712C104.627 17.4232 105.323 17.2992 105.798 17.2992C106.736 17.2992 107.468 17.5322 107.994 17.9952C108.519 18.4572 108.783 18.9832 108.783 19.5672V24.4952H109.776C109.96 24.4952 110.087 24.5282 110.166 24.5992C110.242 24.6652 110.281 24.7552 110.281 24.8692C110.281 24.9742 110.242 25.0622 110.166 25.1352C110.087 25.2042 109.96 25.2402 109.776 25.2402H108.031V25.2392ZM98.2534 17.5652V18.2292L92.6784 24.4952H97.7114V23.4672C97.7114 23.2882 97.7454 23.1612 97.8154 23.0862C97.8804 23.0102 97.9714 22.9712 98.0844 22.9712C98.1974 22.9712 98.2894 23.0102 98.3594 23.0862C98.4314 23.1612 98.4644 23.2882 98.4644 23.4672L98.4554 25.2392H91.6484V24.5732L97.1964 18.3172H92.5714V19.3292C92.5714 19.5042 92.5354 19.6312 92.4654 19.7102C92.3934 19.7862 92.3054 19.8252 92.1994 19.8252C92.0874 19.8252 91.9964 19.7862 91.9244 19.7102C91.8544 19.6312 91.8194 19.5042 91.8194 19.3292V17.5652H98.2534Z" fill="white"/>
<path d="M265.169 32.2468H84.8986V53.9318H265.17V32.2468H265.169ZM84.3946 31.2388H265.673H266.177V31.7428V54.4348V54.9388H265.673H84.3946H83.8906V54.4348V31.7428V31.2388H84.3946Z" fill="white"/>
<path d="M225.052 9.55387H84.8986V31.2389H225.052V9.55387ZM84.3946 8.54688H225.555H226.059V9.05087V31.7419V32.2459H225.555H84.3946H83.8906V31.7419V9.05087V8.54688H84.3946Z" fill="white"/>
</svg>
