<svg width="204" height="49" viewBox="0 0 204 49" fill="none" xmlns="http://www.w3.org/2000/svg">
<path d="M39.4148 20.3691C39.4148 21.6483 39.7981 22.6599 40.5488 23.413C41.3079 24.166 42.3684 24.5381 43.7229 24.5381C44.4335 24.5381 45.0623 24.4253 45.6009 24.1826C46.1304 23.9473 46.5713 23.6317 46.9228 23.2341C47.2735 22.8388 47.5341 22.3841 47.7137 21.8587C47.8849 21.3409 47.975 20.7975 47.975 20.2233C47.975 18.8788 47.6 17.8341 46.841 17.081C46.0819 16.3287 45.0289 15.9559 43.6744 15.9559C42.957 15.9559 42.3283 16.0777 41.7972 16.3129C41.2579 16.5482 40.8177 16.8706 40.467 17.2682C40.1163 17.6732 39.8549 18.143 39.6746 18.6849C39.5034 19.22 39.4148 19.7867 39.4148 20.3691ZM38.4353 39.704C38.4353 40.6344 38.9087 41.3228 39.8557 41.7603C40.8102 42.2052 42.1404 42.4239 43.8623 42.4239C44.9638 42.4239 45.894 42.3269 46.6448 42.1158C47.4038 41.9128 48.0242 41.6475 48.4977 41.3146C48.9787 40.9831 49.3219 40.5938 49.5249 40.1489C49.737 39.704 49.8431 39.2508 49.8431 38.772C49.8431 38.3519 49.737 37.9866 49.5416 37.6958C49.3454 37.4034 49.0598 37.1614 48.7015 36.9592C48.3424 36.7653 47.9258 36.6113 47.4364 36.5053C46.9554 36.4083 46.416 36.3347 45.8206 36.3114L40.6799 36.2129C40.2223 36.5301 39.839 36.8292 39.5451 37.1126C39.2512 37.3959 39.0231 37.6792 38.8519 37.9536C38.6891 38.2294 38.5739 38.5127 38.5171 38.7961C38.4603 39.0794 38.4353 39.3793 38.4353 39.704ZM52.1854 16.6203C52.6256 17.1712 52.9452 17.7537 53.1233 18.3609C53.3111 18.9682 53.4013 19.592 53.4013 20.2241C53.4013 21.5671 53.1642 22.7576 52.699 23.7858C52.2256 24.8139 51.565 25.6737 50.7082 26.3696C49.859 27.0656 48.8386 27.5909 47.6477 27.9479C46.4637 28.3049 45.1509 28.4823 43.7222 28.4823C42.8737 28.4823 42.0912 28.4019 41.3723 28.2313C40.6617 28.0607 40.1155 27.8758 39.7473 27.6488C39.4784 27.9156 39.2496 28.2155 39.0534 28.5402C38.8656 28.8633 38.7678 29.2361 38.7678 29.6412C38.7678 29.9013 38.833 30.1523 38.9633 30.4033C39.086 30.6543 39.2739 30.8806 39.5186 31.0827C39.7716 31.2766 40.0663 31.4382 40.4079 31.5682C40.7511 31.6885 41.1344 31.7621 41.567 31.7779L47.3281 31.9876C48.6166 32.0214 49.784 32.183 50.8287 32.4731C51.8733 32.7738 52.7702 33.1864 53.5217 33.7207C54.2725 34.2626 54.8444 34.9112 55.2519 35.6786C55.6603 36.4489 55.864 37.323 55.864 38.303C55.864 39.4199 55.611 40.4796 55.0967 41.4754C54.5906 42.472 53.8157 43.3386 52.7877 44.0751C51.7589 44.8116 50.4863 45.3948 48.9522 45.8157C47.4258 46.2441 45.6471 46.4546 43.6229 46.4546C41.6647 46.4546 39.9754 46.302 38.5641 45.9938C37.152 45.6872 36.0013 45.2573 35.096 44.7064C34.1976 44.1487 33.5287 43.4926 33.1045 42.723C32.6719 41.9542 32.459 41.1109 32.459 40.197C32.459 39.6469 32.5242 39.1283 32.6711 38.6585C32.8181 38.1813 33.0302 37.7281 33.3158 37.2907C33.6022 36.8533 33.9612 36.4316 34.3938 36.0198C34.8256 35.6147 35.3316 35.2021 35.9195 34.7895C35.1445 34.3445 34.5491 33.7779 34.1408 33.0812C33.7325 32.3852 33.5363 31.6396 33.5363 30.8543C33.5363 30.3124 33.6022 29.8103 33.7484 29.3481C33.8878 28.8784 34.0756 28.4335 34.3112 28.0051C34.54 27.5752 34.8089 27.1716 35.1112 26.7747C35.4127 26.3772 35.7309 25.9894 36.0672 25.6076C35.4793 25.0243 34.9892 24.3201 34.5976 23.4859C34.2059 22.6599 34.0105 21.6167 34.0105 20.3699C34.0105 19.0261 34.2552 17.8273 34.7362 16.7751C35.2263 15.7229 35.9036 14.8406 36.7611 14.1198C37.6179 13.3991 38.6459 12.8564 39.8299 12.4844C41.0208 12.1116 42.3184 11.9268 43.7222 11.9268C44.4327 11.9268 45.1266 11.9591 45.7872 12.0312C46.4486 12.1041 47.0523 12.2259 47.5909 12.395H57.8655L55.161 16.6211H52.1854V16.6203ZM30.8273 12.4115V31.9869H37.8277V36.4963H21.961L24.8457 31.9869V12.4115H30.8273ZM2.36719 36.4963V32.4656L14.5651 16.954L2.93762 16.9247L5.84279 12.3942H21.9512V16.4752L9.74262 31.9809H21.9603L21.961 36.4963H2.36719Z" fill="#0028C8"/>
<path d="M30.8273 8.62801H24.8457V2.89504V2.69287H30.8273V8.62801Z" fill="#0028C8"/>
<path d="M194.947 33.2388C194.683 33.1636 194.404 33.108 194.109 33.0727C193.812 33.0373 193.501 33.0201 193.174 33.0201C192.355 33.0201 191.716 33.1944 191.253 33.5454C190.905 33.807 190.732 34.1211 190.732 34.4834C190.732 34.8223 190.864 35.1072 191.129 35.3364C191.398 35.5686 191.785 35.6844 192.296 35.6844C192.782 35.6844 193.235 35.5859 193.655 35.3935C194.072 35.1996 194.503 34.893 194.947 34.4698V33.2388H194.947ZM194.947 36.0233V35.2161C194.126 35.9001 193.254 36.2435 192.32 36.2435C191.645 36.2435 191.117 36.0729 190.737 35.734C190.357 35.3935 190.166 34.9779 190.166 34.4834C190.166 33.943 190.416 33.4703 190.918 33.0652C191.42 32.6601 192.151 32.4601 193.113 32.4601C193.372 32.4601 193.654 32.4759 193.958 32.5097C194.263 32.5421 194.593 32.5932 194.946 32.6638V31.7597C194.946 31.453 194.802 31.187 194.516 30.9585C194.229 30.7338 193.8 30.6211 193.228 30.6211C192.788 30.6211 192.173 30.7488 191.381 31.0014C191.238 31.0457 191.147 31.0675 191.107 31.0675C191.035 31.0675 190.973 31.0412 190.921 30.9871C190.87 30.936 190.845 30.8668 190.845 30.7872C190.845 30.712 190.867 30.6534 190.912 30.6083C190.973 30.5421 191.228 30.4512 191.67 30.3355C192.369 30.1491 192.895 30.0551 193.256 30.0551C193.966 30.0551 194.521 30.2295 194.919 30.5775C195.318 30.9254 195.518 31.3215 195.518 31.7604V35.4642H196.269C196.409 35.4642 196.506 35.489 196.566 35.5423C196.622 35.5919 196.651 35.6596 196.651 35.7437C196.651 35.8242 196.622 35.8903 196.566 35.9452C196.506 35.9963 196.409 36.0241 196.269 36.0241H194.947V36.0233ZM187.541 30.2558V30.7548L183.318 35.4642H187.13V34.6908C187.13 34.557 187.156 34.4616 187.208 34.406C187.259 34.3488 187.327 34.318 187.413 34.318C187.497 34.318 187.569 34.3488 187.621 34.406C187.676 34.4616 187.701 34.557 187.701 34.6908L187.694 36.0233H182.537V35.5228L186.74 30.821H183.237V31.5801C183.237 31.7138 183.209 31.8093 183.157 31.8679C183.102 31.9235 183.035 31.9528 182.955 31.9528C182.871 31.9528 182.802 31.9235 182.746 31.8679C182.694 31.8093 182.666 31.7138 182.666 31.5801V30.2558H187.541ZM179.174 30.821V30.6346C179.174 30.4963 179.201 30.3986 179.253 30.3422C179.308 30.2851 179.375 30.2558 179.456 30.2558C179.54 30.2558 179.612 30.2851 179.663 30.3422C179.716 30.3978 179.744 30.4963 179.744 30.6346V31.9017C179.739 32.0385 179.712 32.137 179.661 32.1926C179.609 32.2527 179.54 32.282 179.456 32.282C179.379 32.282 179.315 32.2542 179.266 32.2039C179.213 32.1528 179.183 32.0671 179.174 31.9468C179.147 31.6312 178.938 31.332 178.546 31.0487C178.153 30.7639 177.627 30.6218 176.965 30.6218C176.129 30.6218 175.494 30.8818 175.057 31.4012C174.625 31.919 174.407 32.515 174.407 33.1862C174.407 33.9099 174.648 34.5074 175.126 34.9787C175.606 35.4484 176.224 35.6844 176.985 35.6844C177.422 35.6844 177.869 35.604 178.326 35.4439C178.78 35.2853 179.19 35.0283 179.556 34.6705C179.65 34.5826 179.732 34.5397 179.806 34.5397C179.882 34.5397 179.946 34.5645 179.997 34.6149C180.049 34.666 180.075 34.7306 180.075 34.8058C180.075 34.9967 179.847 35.2372 179.397 35.5311C178.665 36.0068 177.854 36.2443 176.958 36.2443C176.051 36.2443 175.303 35.9564 174.718 35.3815C174.134 34.8058 173.844 34.0783 173.844 33.1944C173.844 32.2918 174.142 31.5432 174.74 30.9502C175.338 30.3542 176.089 30.0566 176.999 30.0566C177.863 30.0551 178.588 30.3107 179.174 30.821ZM167.894 30.2558V31.6665C168.628 31.0104 169.177 30.5872 169.542 30.3978C169.906 30.2084 170.243 30.113 170.553 30.113C170.889 30.113 171.201 30.2272 171.489 30.4504C171.778 30.6752 171.923 30.845 171.923 30.9585C171.923 31.0449 171.892 31.1141 171.838 31.1712C171.783 31.2253 171.711 31.2531 171.627 31.2531C171.581 31.2531 171.545 31.2456 171.513 31.2298C171.481 31.214 171.423 31.1637 171.339 31.0803C171.181 30.9247 171.045 30.8187 170.929 30.7616C170.812 30.703 170.697 30.6722 170.588 30.6722C170.34 30.6722 170.044 30.7706 169.696 30.966C169.35 31.1629 168.749 31.6394 167.895 32.3985V35.4634H170.392C170.53 35.4634 170.629 35.4882 170.689 35.5416C170.746 35.5912 170.776 35.6588 170.776 35.743C170.776 35.8234 170.746 35.8896 170.689 35.9444C170.629 35.9955 170.53 36.0233 170.392 36.0233H165.968C165.832 36.0233 165.736 35.9985 165.678 35.9452C165.621 35.8956 165.591 35.8294 165.591 35.7498C165.591 35.6746 165.619 35.6115 165.676 35.5589C165.731 35.5093 165.827 35.4837 165.968 35.4837H167.33V30.8202H166.291C166.156 30.8202 166.059 30.7939 166.002 30.7413C165.942 30.6872 165.915 30.6196 165.915 30.5346C165.915 30.4557 165.942 30.3866 165.997 30.3347C166.054 30.2821 166.151 30.2558 166.291 30.2558H167.894ZM161.938 33.2388C161.674 33.1636 161.394 33.1065 161.1 33.0727C160.804 33.0373 160.492 33.0201 160.165 33.0201C159.347 33.0201 158.707 33.1959 158.245 33.5454C157.898 33.807 157.723 34.1211 157.723 34.4834C157.723 34.8223 157.856 35.1072 158.122 35.3364C158.389 35.5686 158.776 35.6844 159.288 35.6844C159.774 35.6844 160.228 35.5859 160.647 35.3935C161.064 35.2011 161.495 34.893 161.939 34.4698V33.2388H161.938ZM161.938 36.0233V35.2161C161.118 35.9001 160.245 36.2435 159.312 36.2435C158.635 36.2435 158.107 36.0729 157.728 35.734C157.348 35.395 157.157 34.9779 157.157 34.4834C157.157 33.943 157.407 33.4703 157.909 33.0652C158.41 32.6616 159.142 32.4601 160.104 32.4601C160.363 32.4601 160.646 32.4774 160.949 32.5097C161.253 32.5421 161.585 32.5932 161.938 32.6638V31.7597C161.938 31.453 161.794 31.1855 161.507 30.9585C161.222 30.7338 160.792 30.6211 160.219 30.6211C159.779 30.6211 159.164 30.7488 158.373 31.0014C158.231 31.0457 158.138 31.0675 158.098 31.0675C158.026 31.0675 157.964 31.0412 157.912 30.9871C157.862 30.936 157.836 30.8668 157.836 30.7872C157.836 30.712 157.86 30.6534 157.903 30.6083C157.965 30.5421 158.22 30.4512 158.662 30.3355C159.36 30.1506 159.888 30.0551 160.247 30.0551C160.958 30.0551 161.513 30.231 161.911 30.5775C162.309 30.9254 162.509 31.323 162.509 31.7604V35.4642H163.26C163.4 35.4642 163.497 35.489 163.556 35.5423C163.613 35.5919 163.644 35.6596 163.644 35.7437C163.644 35.8242 163.614 35.8918 163.556 35.9452C163.498 35.9978 163.4 36.0241 163.26 36.0241H161.938V36.0233ZM153.494 33.1523C153.494 32.4436 153.25 31.8431 152.767 31.3538C152.286 30.8653 151.711 30.6211 151.044 30.6211C150.373 30.6211 149.796 30.8646 149.312 31.3538C148.828 31.8409 148.586 32.4429 148.586 33.1523C148.586 33.8581 148.828 34.4571 149.312 34.9478C149.796 35.4394 150.373 35.6844 151.044 35.6844C151.711 35.6844 152.286 35.4379 152.767 34.9478C153.249 34.4571 153.494 33.8581 153.494 33.1523ZM154.064 27.6636V35.4642H154.817C154.956 35.4642 155.054 35.4905 155.112 35.5423C155.168 35.5919 155.199 35.6596 155.199 35.7437C155.199 35.8242 155.169 35.8903 155.112 35.9452C155.056 35.9963 154.955 36.0241 154.817 36.0241H153.494V34.9125C152.841 35.7994 152.009 36.2435 151.003 36.2435C150.492 36.2435 150.004 36.1083 149.537 35.8384C149.07 35.5716 148.699 35.1898 148.428 34.6908C148.156 34.1948 148.021 33.6822 148.021 33.1523C148.021 32.621 148.156 32.1054 148.428 31.6109C148.698 31.1148 149.069 30.7315 149.537 30.4632C150.003 30.1919 150.494 30.0551 151.009 30.0551C151.995 30.0551 152.823 30.4986 153.493 31.3877V28.2288H152.742C152.602 28.2288 152.505 28.2025 152.446 28.1507C152.388 28.0965 152.359 28.0274 152.359 27.9425C152.359 27.8636 152.386 27.7974 152.446 27.7425C152.503 27.6914 152.602 27.6636 152.742 27.6636H154.064ZM145.631 33.1523C145.631 32.4519 145.379 31.8529 144.875 31.3598C144.371 30.8668 143.761 30.6218 143.047 30.6218C142.329 30.6218 141.719 30.8698 141.215 31.3644C140.714 31.8574 140.461 32.4564 140.461 33.1523C140.461 33.8453 140.714 34.4413 141.215 34.9373C141.719 35.4349 142.329 35.6844 143.047 35.6844C143.761 35.6844 144.371 35.4364 144.875 34.9418C145.379 34.4458 145.631 33.8498 145.631 33.1523ZM146.202 33.1523C146.202 34.0054 145.894 34.7344 145.278 35.3364C144.662 35.9414 143.922 36.2435 143.053 36.2435C142.175 36.2435 141.429 35.9399 140.816 35.3349C140.204 34.7284 139.897 34.0009 139.897 33.1523C139.897 32.2993 140.204 31.5688 140.816 30.9653C141.43 30.3573 142.175 30.0551 143.053 30.0551C143.921 30.0551 144.662 30.3573 145.278 30.9593C145.894 31.5643 146.202 32.2948 146.202 33.1523ZM137.56 32.9659C137.56 32.3219 137.323 31.7695 136.852 31.3102C136.38 30.8525 135.802 30.6218 135.121 30.6218C134.439 30.6218 133.858 30.854 133.384 31.3148C132.91 31.777 132.671 32.3264 132.671 32.9659C132.671 33.6085 132.91 34.1639 133.384 34.6262C133.858 35.0869 134.439 35.3161 135.121 35.3161C135.797 35.3161 136.373 35.0854 136.847 34.6277C137.321 34.1677 137.56 33.613 137.56 32.9659ZM132.671 30.2558V31.2734C133.009 30.8698 133.368 30.5677 133.754 30.3618C134.139 30.1581 134.592 30.0551 135.115 30.0551C135.672 30.0551 136.183 30.1859 136.653 30.4429C137.122 30.6985 137.486 31.0592 137.742 31.5177C138.001 31.9769 138.13 32.4616 138.13 32.9667C138.13 33.7709 137.838 34.4578 137.26 35.029C136.683 35.5987 135.97 35.8835 135.122 35.8835C134.116 35.8835 133.298 35.4784 132.672 34.6652V38.0368H134.043C134.177 38.0368 134.274 38.0601 134.332 38.1119C134.39 38.1638 134.419 38.2322 134.419 38.3156C134.419 38.396 134.39 38.4622 134.332 38.517C134.274 38.5696 134.176 38.5952 134.043 38.5952H131.351C131.215 38.5952 131.118 38.5704 131.062 38.5185C131.006 38.4689 130.975 38.4013 130.975 38.3156C130.975 38.2322 131.004 38.163 131.062 38.1119C131.118 38.0608 131.215 38.0368 131.351 38.0368H132.109V30.8217H131.351C131.215 30.8217 131.118 30.7954 131.062 30.7428C131.005 30.6887 130.975 30.6211 130.975 30.5361C130.975 30.4572 131.005 30.3881 131.062 30.3362C131.118 30.2836 131.215 30.2573 131.351 30.2573H132.671V30.2558ZM128.406 30.6218C128.406 30.491 128.434 30.3971 128.487 30.343C128.541 30.2859 128.608 30.2565 128.688 30.2565C128.773 30.2565 128.844 30.2859 128.897 30.343C128.951 30.4001 128.976 30.497 128.976 30.6353V31.5951C128.976 31.7259 128.952 31.8228 128.897 31.8814C128.845 31.9386 128.773 31.9679 128.688 31.9679C128.612 31.9679 128.548 31.9431 128.498 31.8957C128.447 31.8461 128.418 31.7649 128.406 31.6537C128.384 31.3877 128.243 31.1652 127.992 30.9946C127.625 30.7451 127.139 30.6218 126.535 30.6218C125.904 30.6218 125.414 30.7496 125.063 31.0021C124.8 31.1915 124.667 31.4057 124.667 31.6409C124.667 31.907 124.827 32.128 125.14 32.3076C125.354 32.4293 125.76 32.5293 126.361 32.5939C127.144 32.6773 127.689 32.7713 127.992 32.8803C128.425 33.0343 128.748 33.2515 128.961 33.5259C129.175 33.8002 129.28 34.0986 129.28 34.4195C129.28 34.8937 129.05 35.3161 128.587 35.6881C128.127 36.0564 127.451 36.2443 126.562 36.2443C125.67 36.2443 124.941 36.0196 124.373 35.5716C124.373 35.7212 124.364 35.8197 124.346 35.864C124.329 35.9083 124.295 35.9459 124.248 35.9767C124.201 36.006 124.148 36.0241 124.091 36.0241C124.009 36.0241 123.943 35.9933 123.889 35.9377C123.836 35.8805 123.807 35.7866 123.807 35.6513V34.4991C123.807 34.3639 123.833 34.2699 123.885 34.2113C123.937 34.1557 124.004 34.1264 124.091 34.1264C124.171 34.1264 124.238 34.1542 124.295 34.2098C124.35 34.2639 124.378 34.3406 124.378 34.433C124.378 34.6367 124.432 34.8073 124.534 34.9441C124.691 35.1568 124.94 35.3349 125.282 35.4739C125.624 35.6137 126.043 35.6851 126.541 35.6851C127.274 35.6851 127.82 35.5483 128.179 35.2785C128.537 35.0087 128.716 34.7224 128.716 34.4195C128.716 34.073 128.534 33.7942 128.172 33.5875C127.806 33.3778 127.272 33.2365 126.57 33.1659C125.869 33.0952 125.366 33.0013 125.063 32.887C124.759 32.7713 124.521 32.5977 124.352 32.3692C124.182 32.137 124.095 31.889 124.095 31.6206C124.095 31.1419 124.333 30.7601 124.807 30.4783C125.282 30.1979 125.847 30.0551 126.505 30.0551C127.287 30.0551 127.919 30.2445 128.406 30.6218ZM120.875 33.1523C120.875 32.4519 120.623 31.8529 120.118 31.3598C119.614 30.8668 119.004 30.6218 118.289 30.6218C117.573 30.6218 116.963 30.8698 116.458 31.3644C115.958 31.8574 115.705 32.4564 115.705 33.1523C115.705 33.8453 115.958 34.4413 116.458 34.9373C116.963 35.4349 117.573 35.6844 118.289 35.6844C119.004 35.6844 119.614 35.4364 120.118 34.9418C120.623 34.4458 120.875 33.8498 120.875 33.1523ZM121.445 33.1523C121.445 34.0054 121.137 34.7344 120.521 35.3364C119.905 35.9414 119.164 36.2435 118.296 36.2435C117.418 36.2435 116.672 35.9399 116.059 35.3349C115.446 34.7284 115.14 34.0009 115.14 33.1523C115.14 32.2993 115.448 31.5688 116.059 30.9653C116.674 30.3573 117.418 30.0551 118.296 30.0551C119.164 30.0551 119.905 30.3573 120.521 30.9593C121.139 31.5643 121.445 32.2948 121.445 33.1523ZM111.937 32.9659C111.937 32.3083 111.71 31.7537 111.257 31.3012C110.802 30.8488 110.26 30.6218 109.628 30.6218C108.997 30.6218 108.453 30.8495 108.003 31.3027C107.551 31.7589 107.324 32.3128 107.324 32.9659C107.324 33.6236 107.552 34.1797 108.003 34.6352C108.454 35.0906 108.997 35.3161 109.628 35.3161C110.26 35.3161 110.803 35.0899 111.257 34.6352C111.71 34.1797 111.937 33.6236 111.937 32.9659ZM111.937 31.2809V30.2565H113.259C113.395 30.2565 113.491 30.2828 113.549 30.3355C113.604 30.3866 113.634 30.4572 113.634 30.5421C113.634 30.6211 113.605 30.6887 113.549 30.7421C113.492 30.7947 113.394 30.821 113.259 30.821H112.5V36.4111C112.5 36.7824 112.421 37.1161 112.26 37.4077C112.153 37.6031 111.973 37.8053 111.722 38.0157C111.472 38.2239 111.243 38.3727 111.037 38.4607C110.833 38.5486 110.555 38.5944 110.212 38.5944H108.615C108.48 38.5944 108.384 38.5696 108.326 38.5178C108.268 38.4667 108.238 38.4005 108.238 38.3149C108.238 38.2314 108.267 38.1608 108.326 38.1082C108.383 38.0571 108.479 38.0293 108.615 38.0293L110.233 38.0368C110.563 38.0383 110.863 37.9519 111.129 37.7812C111.394 37.6121 111.616 37.3671 111.789 37.0432C111.888 36.8568 111.938 36.6201 111.938 36.3315V34.651C111.332 35.4747 110.554 35.8843 109.6 35.8843C108.828 35.8843 108.159 35.5994 107.597 35.0298C107.035 34.4586 106.754 33.7716 106.754 32.9675C106.754 32.1648 107.035 31.4778 107.597 30.9097C108.158 30.3415 108.828 30.0566 109.6 30.0566C110.553 30.0551 111.331 30.4647 111.937 31.2809ZM98.3964 33.2388C98.1328 33.1636 97.8525 33.108 97.5578 33.0727C97.2631 33.0373 96.951 33.0201 96.623 33.0201C95.8049 33.0201 95.1655 33.1944 94.7034 33.5454C94.3542 33.807 94.1807 34.1211 94.1807 34.4834C94.1807 34.8223 94.314 35.1072 94.5799 35.3364C94.8481 35.5686 95.2344 35.6844 95.7465 35.6844C96.2321 35.6844 96.6851 35.5859 97.1048 35.3935C97.5222 35.1996 97.9525 34.893 98.3972 34.4698V33.2388H98.3964ZM98.3964 36.0233V35.2161C97.5768 35.9001 96.7033 36.2435 95.77 36.2435C95.0935 36.2435 94.567 36.0729 94.1868 35.734C93.8057 35.3935 93.6156 34.9779 93.6156 34.4834C93.6156 33.943 93.8656 33.4703 94.3678 33.0652C94.8693 32.6601 95.6003 32.4601 96.5617 32.4601C96.8215 32.4601 97.1033 32.4759 97.4078 32.5097C97.7123 32.5421 98.0426 32.5932 98.3957 32.6638V31.7597C98.3957 31.453 98.2517 31.187 97.9654 30.9585C97.679 30.7338 97.2503 30.6211 96.6776 30.6211C96.2374 30.6211 95.6231 30.7488 94.8307 31.0014C94.6882 31.0457 94.5958 31.0675 94.5549 31.0675C94.4845 31.0675 94.4223 31.0412 94.3701 30.9871C94.3193 30.936 94.2943 30.8668 94.2943 30.7872C94.2943 30.712 94.3163 30.6534 94.361 30.6083C94.4223 30.5421 94.6769 30.4512 95.1193 30.3355C95.8177 30.1491 96.345 30.0551 96.7048 30.0551C97.4154 30.0551 97.9699 30.2295 98.3684 30.5775C98.7661 30.9254 98.9669 31.3215 98.9669 31.7604V35.4642H99.7176C99.8585 35.4642 99.9539 35.489 100.014 35.5423C100.071 35.5919 100.101 35.6596 100.101 35.7437C100.101 35.8242 100.071 35.8903 100.014 35.9452C99.9539 35.9963 99.8585 36.0241 99.7176 36.0241H98.3964V36.0233ZM91.2922 33.1523C91.2922 32.4474 91.0475 31.8491 90.5589 31.3583C90.0725 30.8668 89.5021 30.6218 88.8468 30.6218C88.1938 30.6218 87.6227 30.8668 87.1348 31.3583C86.6462 31.8484 86.4038 32.4474 86.4038 33.1523C86.4038 33.8581 86.6462 34.4571 87.1348 34.9478C87.6227 35.4394 88.1931 35.6844 88.8468 35.6844C89.5021 35.6844 90.0725 35.4394 90.5589 34.9478C91.0475 34.4571 91.2922 33.8581 91.2922 33.1523ZM86.3969 27.6636V31.3749C87.078 30.494 87.8984 30.0551 88.8605 30.0551C89.6862 30.0551 90.39 30.352 90.9755 30.945C91.5626 31.538 91.8558 32.2662 91.8558 33.1275C91.8558 33.9963 91.5581 34.7351 90.9664 35.3364C90.3733 35.9414 89.6718 36.2435 88.8605 36.2435C87.8772 36.2435 87.0545 35.8031 86.3969 34.9253V36.0233H85.075C84.9394 36.0233 84.8432 35.9955 84.7864 35.9444C84.7296 35.8903 84.6993 35.8242 84.6993 35.743C84.6993 35.6596 84.7296 35.5919 84.7864 35.5416C84.8432 35.489 84.9394 35.4634 85.075 35.4634H85.8341V28.2288H85.075C84.9394 28.2288 84.8432 28.204 84.7864 28.1507C84.7296 28.0973 84.6993 28.0274 84.6993 27.9425C84.6993 27.8636 84.7296 27.7974 84.7864 27.7425C84.8432 27.6899 84.9394 27.6636 85.075 27.6636H86.3969ZM82.2282 30.2558V30.7548L78.0057 35.4642H81.8184V34.6908C81.8184 34.557 81.8441 34.4616 81.8972 34.406C81.9471 34.3488 82.0161 34.318 82.1009 34.318C82.1858 34.318 82.2562 34.3488 82.31 34.406C82.3638 34.4616 82.3896 34.5585 82.3888 34.6908L82.382 36.0233H77.2261V35.5228L81.429 30.821H77.9246V31.5801C77.9246 31.7123 77.8981 31.8093 77.8451 31.8679C77.792 31.925 77.7238 31.9528 77.6428 31.9528C77.5587 31.9528 77.4883 31.925 77.4345 31.8679C77.3822 31.8093 77.3549 31.7138 77.3549 31.5801V30.2558H82.2282ZM72.3173 30.2558V35.4642H74.5308C74.6717 35.4642 74.7694 35.489 74.827 35.5423C74.8869 35.5919 74.9141 35.6596 74.9141 35.7437C74.9141 35.8242 74.8869 35.8903 74.827 35.9452C74.7702 35.9963 74.6717 36.0241 74.5308 36.0241H69.5371C69.4023 36.0241 69.306 35.9963 69.2485 35.9452C69.1894 35.8911 69.1621 35.8249 69.1621 35.7437C69.1621 35.6603 69.1894 35.5927 69.2485 35.5423C69.306 35.4897 69.4023 35.4642 69.5371 35.4642H71.7537V30.821H70.1083C69.9727 30.821 69.8765 30.7947 69.8151 30.7421C69.7553 30.6879 69.725 30.6218 69.725 30.5421C69.725 30.4572 69.7553 30.3866 69.8128 30.3355C69.8697 30.2828 69.9681 30.2565 70.1083 30.2565H72.3173V30.2558ZM72.2976 28.8293H71.465V27.3833H72.2976V28.8293Z" fill="#0028C8"/>
<path d="M164.36 16.1843C164.096 16.1092 163.817 16.0551 163.521 16.0182C163.225 15.9844 162.914 15.9664 162.587 15.9664C161.769 15.9664 161.129 16.14 160.666 16.491C160.318 16.7525 160.144 17.0659 160.144 17.4304C160.144 17.7694 160.277 18.0527 160.543 18.282C160.811 18.5149 161.198 18.6307 161.709 18.6307C162.195 18.6307 162.649 18.533 163.068 18.3391C163.485 18.1452 163.916 17.8385 164.361 17.4154V16.1843H164.36ZM164.36 18.9689V18.1625C163.539 18.8456 162.666 19.1891 161.733 19.1891C161.057 19.1891 160.531 19.0185 160.15 18.681C159.77 18.3391 159.579 17.9235 159.579 17.4304C159.579 16.8885 159.829 16.4158 160.331 16.0107C160.832 15.6071 161.563 15.4057 162.526 15.4057C162.785 15.4057 163.067 15.4215 163.371 15.4553C163.675 15.4876 164.006 15.5395 164.359 15.6109V14.7052C164.359 14.3986 164.214 14.1318 163.928 13.9056C163.642 13.6801 163.214 13.5666 162.641 13.5666C162.201 13.5666 161.586 13.6936 160.794 13.9469C160.652 13.9928 160.56 14.013 160.519 14.013C160.448 14.013 160.387 13.9882 160.334 13.9334C160.284 13.8808 160.258 13.8131 160.258 13.7327C160.258 13.6576 160.281 13.5982 160.324 13.5538C160.387 13.4877 160.64 13.3968 161.083 13.281C161.782 13.0946 162.308 13.0014 162.669 13.0014C163.38 13.0014 163.934 13.1766 164.332 13.5245C164.731 13.8718 164.93 14.2671 164.93 14.706V18.4097H165.682C165.822 18.4097 165.918 18.4345 165.978 18.4879C166.035 18.5375 166.064 18.6051 166.064 18.6908C166.064 18.7697 166.035 18.8359 165.978 18.8907C165.918 18.9426 165.822 18.9696 165.682 18.9696H164.36V18.9689ZM153.341 16.4767V18.9681H152.02C151.884 18.9681 151.788 18.9411 151.731 18.8892C151.671 18.8351 151.644 18.769 151.644 18.6893C151.644 18.6044 151.671 18.5367 151.731 18.4864C151.788 18.4338 151.884 18.4082 152.02 18.4082H152.778V11.1759H152.02C151.884 11.1759 151.788 11.1511 151.731 11.097C151.671 11.0444 151.644 10.9737 151.644 10.8903C151.644 10.8106 151.671 10.7445 151.731 10.6889C151.788 10.6378 151.884 10.6099 152.02 10.6099H153.341V15.7665L155.738 13.7673H155.45C155.315 13.7673 155.218 13.741 155.161 13.6884C155.101 13.6343 155.074 13.5681 155.074 13.4885C155.074 13.4043 155.101 13.3344 155.161 13.2818C155.218 13.2292 155.315 13.2029 155.45 13.2029H157.256C157.394 13.2029 157.492 13.2292 157.551 13.2818C157.609 13.3344 157.638 13.4043 157.638 13.4885C157.638 13.5674 157.609 13.6335 157.551 13.6884C157.492 13.741 157.394 13.7673 157.256 13.7673H156.605L154.404 15.5936L157.19 18.4105H157.84C157.978 18.4105 158.077 18.4353 158.136 18.4886C158.193 18.5382 158.224 18.6059 158.224 18.6916C158.224 18.7705 158.193 18.8366 158.136 18.8915C158.077 18.9433 157.978 18.9704 157.84 18.9704H156.014C155.878 18.9704 155.782 18.9433 155.725 18.8915C155.666 18.8374 155.638 18.7712 155.638 18.6916C155.638 18.6066 155.666 18.539 155.725 18.4886C155.782 18.436 155.878 18.4105 156.014 18.4105H156.41L153.985 15.9393L153.341 16.4767ZM148.605 13.5666C148.605 13.4373 148.632 13.3434 148.684 13.287C148.739 13.2307 148.805 13.2014 148.886 13.2014C148.971 13.2014 149.042 13.2322 149.095 13.287C149.148 13.3442 149.175 13.4419 149.175 13.5801V14.5399C149.175 14.6722 149.149 14.7676 149.095 14.8262C149.042 14.8826 148.971 14.9127 148.886 14.9127C148.81 14.9127 148.745 14.8879 148.696 14.8398C148.644 14.7902 148.614 14.7097 148.605 14.5985C148.58 14.3325 148.441 14.11 148.19 13.9394C147.823 13.6899 147.337 13.5666 146.733 13.5666C146.102 13.5666 145.611 13.6936 145.261 13.9469C144.998 14.1363 144.865 14.3513 144.865 14.5857C144.865 14.8518 145.025 15.0728 145.336 15.2524C145.551 15.3749 145.958 15.4741 146.558 15.5387C147.342 15.6237 147.886 15.7169 148.19 15.8251C148.623 15.9799 148.946 16.1956 149.158 16.4707C149.372 16.745 149.478 17.0434 149.478 17.3643C149.478 17.8385 149.247 18.2617 148.786 18.6329C148.325 19.0027 147.649 19.1891 146.76 19.1891C145.868 19.1891 145.139 18.9644 144.571 18.5164C144.571 18.666 144.562 18.7645 144.543 18.8103C144.526 18.8531 144.493 18.8907 144.445 18.9208C144.399 18.9508 144.346 18.9681 144.289 18.9681C144.207 18.9681 144.141 18.9373 144.087 18.8825C144.033 18.8253 144.005 18.7299 144.005 18.5954V17.4432C144.005 17.3079 144.031 17.214 144.084 17.1569C144.134 17.099 144.202 17.0704 144.289 17.0704C144.369 17.0704 144.436 17.0975 144.493 17.1538C144.548 17.208 144.575 17.2839 144.575 17.3771C144.575 17.5807 144.63 17.7513 144.731 17.8889C144.888 18.1008 145.137 18.2789 145.48 18.4187C145.822 18.5578 146.241 18.6299 146.739 18.6299C147.472 18.6299 148.017 18.4939 148.377 18.2233C148.735 17.9528 148.914 17.6657 148.914 17.3635C148.914 17.0171 148.733 16.7382 148.37 16.5316C148.005 16.3211 147.47 16.1806 146.768 16.1099C146.068 16.04 145.565 15.9461 145.261 15.8311C144.956 15.7153 144.719 15.5417 144.55 15.3125C144.38 15.081 144.293 14.833 144.293 14.5647C144.293 14.0875 144.531 13.7042 145.005 13.4223C145.48 13.142 146.046 12.9999 146.703 12.9999C147.484 13.0007 148.117 13.1893 148.605 13.5666ZM139.924 18.9689L139.228 18.9764L137.985 15.3794L136.75 18.9764L136.051 18.9689L134.882 13.7665H134.607C134.474 13.7665 134.377 13.7402 134.318 13.6876C134.26 13.6335 134.232 13.5651 134.232 13.4809C134.232 13.402 134.26 13.3344 134.318 13.281C134.377 13.2284 134.474 13.2021 134.607 13.2021H136.159C136.292 13.2021 136.388 13.2284 136.447 13.281C136.505 13.3336 136.535 13.4035 136.535 13.4877C136.535 13.5666 136.505 13.6328 136.447 13.6876C136.388 13.7402 136.292 13.7665 136.159 13.7665H135.439L136.441 18.2023L137.641 14.6579H138.313L139.548 18.2023L140.509 13.7665H139.798C139.662 13.7665 139.566 13.7402 139.505 13.6876C139.445 13.6335 139.416 13.5651 139.416 13.4809C139.416 13.402 139.443 13.3344 139.503 13.281C139.559 13.2284 139.658 13.2021 139.798 13.2021H141.343C141.48 13.2021 141.578 13.2284 141.638 13.281C141.696 13.3336 141.725 13.4035 141.725 13.4877C141.725 13.5666 141.696 13.6328 141.638 13.6876C141.578 13.7402 141.48 13.7665 141.343 13.7665H141.072L139.924 18.9689ZM131.803 16.0971C131.803 15.3967 131.551 14.7977 131.047 14.3047C130.543 13.8124 129.933 13.5666 129.218 13.5666C128.501 13.5666 127.891 13.8146 127.387 14.3099C126.886 14.8022 126.634 15.4012 126.634 16.0971C126.634 16.7908 126.886 17.3868 127.387 17.8821C127.891 18.3797 128.501 18.6299 129.218 18.6299C129.933 18.6299 130.543 18.3819 131.047 17.8866C131.551 17.3921 131.803 16.7961 131.803 16.0971ZM132.374 16.0971C132.374 16.9494 132.066 17.6792 131.45 18.2812C130.833 18.8862 130.093 19.1883 129.224 19.1883C128.347 19.1883 127.599 18.8855 126.988 18.2797C126.375 17.6732 126.069 16.9449 126.069 16.0971C126.069 15.2441 126.377 14.5151 126.988 13.9101C127.602 13.3036 128.347 13.0007 129.224 13.0007C130.092 13.0007 130.834 13.3021 131.45 13.9056C132.067 14.5091 132.374 15.2404 132.374 16.0971ZM121.777 13.2014V18.4097H123.99C124.131 18.4097 124.229 18.4345 124.286 18.4879C124.346 18.5375 124.373 18.6051 124.373 18.6908C124.373 18.7697 124.346 18.8359 124.286 18.8907C124.23 18.9426 124.131 18.9696 123.99 18.9696H118.997C118.862 18.9696 118.766 18.9426 118.708 18.8907C118.648 18.8366 118.621 18.7705 118.621 18.6908C118.621 18.6059 118.648 18.5382 118.708 18.4879C118.766 18.4353 118.862 18.4097 118.997 18.4097H121.213V13.7665H119.567C119.432 13.7665 119.336 13.7402 119.274 13.6876C119.214 13.6335 119.185 13.5674 119.185 13.4877C119.185 13.4035 119.214 13.3336 119.272 13.281C119.329 13.2284 119.428 13.2021 119.567 13.2021H121.777V13.2014ZM121.756 11.7749H120.924V10.3289H121.756V11.7749ZM116.25 16.0971C116.25 15.3922 116.004 14.7954 115.517 14.3032C115.029 13.8131 114.46 13.5666 113.804 13.5666C113.152 13.5666 112.581 13.8124 112.092 14.3032C111.604 14.7932 111.361 15.3922 111.361 16.0971C111.361 16.8044 111.604 17.4019 112.092 17.8941C112.581 18.3842 113.151 18.6299 113.804 18.6299C114.46 18.6299 115.029 18.3834 115.517 17.8941C116.003 17.4026 116.25 16.8051 116.25 16.0971ZM111.355 10.6092V14.3197C112.035 13.4403 112.855 13.0014 113.818 13.0014C114.643 13.0014 115.347 13.2976 115.933 13.8905C116.52 14.4835 116.814 15.2118 116.814 16.0731C116.814 16.9412 116.515 17.6807 115.924 18.282C115.331 18.887 114.63 19.1891 113.818 19.1891C112.835 19.1891 112.013 18.7487 111.355 17.8708V18.9689H110.033C109.898 18.9689 109.8 18.9426 109.744 18.89C109.686 18.8359 109.657 18.7697 109.657 18.6901C109.657 18.6051 109.687 18.5382 109.744 18.4871C109.802 18.436 109.897 18.409 110.033 18.409H110.791V11.1759H110.033C109.898 11.1759 109.802 11.1496 109.744 11.097C109.687 11.0444 109.657 10.9737 109.657 10.8903C109.657 10.8106 109.686 10.7437 109.744 10.6889C109.8 10.6362 109.897 10.6099 110.033 10.6099H111.355V10.6092ZM105 18.9764C105 19.032 104.979 19.0839 104.938 19.1215C104.905 19.1523 104.839 19.1726 104.736 19.1831C104.575 19.1981 104.43 19.2845 104.3 19.4356C104.172 19.5867 104.106 19.7603 104.106 19.9595C104.106 20.1165 104.166 20.2458 104.285 20.351C104.402 20.4547 104.569 20.5081 104.785 20.5081C104.99 20.5081 105.166 20.4457 105.306 20.3217C105.375 20.2593 105.432 20.2263 105.48 20.2263C105.534 20.2263 105.581 20.2466 105.622 20.2819C105.665 20.3202 105.681 20.3713 105.681 20.4329C105.681 20.5209 105.616 20.6051 105.487 20.6945C105.286 20.8328 105.047 20.9057 104.77 20.9057C104.442 20.9057 104.184 20.8147 103.991 20.6329C103.798 20.451 103.702 20.2142 103.702 19.9211C103.702 19.61 103.815 19.3402 104.038 19.1117C104.262 18.8832 104.511 18.769 104.784 18.769C104.845 18.769 104.897 18.7878 104.936 18.8253C104.978 18.8629 105 18.9125 105 18.9764ZM106.945 15.6515C106.834 15.0359 106.54 14.5331 106.062 14.1468C105.587 13.7605 105.018 13.5674 104.36 13.5674C103.703 13.5674 103.136 13.7598 102.662 14.1401C102.188 14.5219 101.892 15.0277 101.775 15.6522H106.945V15.6515ZM107.515 16.2181H101.768C101.867 16.9412 102.172 17.5259 102.685 17.9663C103.198 18.4067 103.831 18.6307 104.59 18.6307C105.009 18.6307 105.45 18.5608 105.912 18.4248C106.372 18.2872 106.749 18.1038 107.039 17.8784C107.125 17.8107 107.197 17.7784 107.262 17.7784C107.332 17.7784 107.396 17.8047 107.45 17.8588C107.503 17.9144 107.53 17.9798 107.53 18.0572C107.53 18.1324 107.49 18.2038 107.421 18.2759C107.205 18.4977 106.825 18.7043 106.275 18.8982C105.728 19.0906 105.164 19.1891 104.588 19.1891C103.622 19.1891 102.814 18.8749 102.166 18.2466C101.519 17.6183 101.197 16.8562 101.197 15.9664C101.197 15.1524 101.5 14.4565 102.107 13.874C102.714 13.293 103.463 13.0014 104.36 13.0014C105.281 13.0014 106.04 13.2998 106.635 13.8973C107.231 14.4948 107.525 15.2682 107.515 16.2181ZM97.0061 10.6092L97.0136 14.3054L98.2348 13.6155C98.3378 13.5561 98.4136 13.5268 98.4636 13.5268C98.5439 13.5268 98.6105 13.5538 98.6643 13.608C98.7181 13.6598 98.7454 13.7267 98.7454 13.8064C98.7454 13.865 98.7295 13.9153 98.7022 13.9559C98.6726 13.9995 98.6105 14.0469 98.5166 14.0987L97.0061 14.9585V18.4097H99.2219C99.3605 18.4097 99.459 18.4345 99.5188 18.4879C99.5756 18.5375 99.6059 18.6051 99.6059 18.6908C99.6059 18.7697 99.5756 18.8359 99.5188 18.8907C99.459 18.9426 99.3605 18.9696 99.2219 18.9696H94.2266C94.0918 18.9696 93.9948 18.9426 93.938 18.8907C93.8804 18.8366 93.8509 18.7705 93.8509 18.6908C93.8509 18.6059 93.8804 18.5382 93.938 18.4879C93.9948 18.4353 94.0918 18.4097 94.2266 18.4097H96.4424V15.2794L95.2266 15.9731C95.1327 16.0242 95.0561 16.0521 94.9993 16.0521C94.9228 16.0521 94.8569 16.0242 94.8039 15.9686C94.7501 15.9138 94.7243 15.8476 94.7243 15.7732C94.7243 15.7131 94.7387 15.6635 94.7637 15.6229C94.791 15.5793 94.8508 15.532 94.9448 15.4794L96.4432 14.6338V11.1759H94.8183C94.6834 11.1759 94.5872 11.1511 94.5251 11.097C94.4653 11.0444 94.4357 10.9737 94.4357 10.8903C94.4357 10.8106 94.463 10.7445 94.5228 10.6889C94.5796 10.6378 94.6781 10.6099 94.8183 10.6099H97.0061V10.6092ZM90.3662 15.9108C90.3662 15.2539 90.1389 14.7 89.6852 14.2468C89.2291 13.7936 88.689 13.5666 88.0564 13.5666C87.4269 13.5666 86.8823 13.7943 86.4308 14.249C85.9793 14.7052 85.7528 15.2584 85.7528 15.9108C85.7528 16.5676 85.9793 17.1245 86.4308 17.58C86.8823 18.0339 87.4262 18.2617 88.0564 18.2617C88.689 18.2617 89.2299 18.0339 89.6852 17.58C90.1389 17.1253 90.3662 16.5676 90.3662 15.9108ZM90.3662 14.2257V13.2014H91.6881C91.8229 13.2014 91.9199 13.2277 91.9767 13.2803C92.0343 13.3329 92.0638 13.4028 92.0638 13.4869C92.0638 13.5659 92.0343 13.632 91.9767 13.6869C91.9199 13.7395 91.8229 13.7658 91.6881 13.7658H90.9298V19.3552C90.9298 19.728 90.8495 20.0602 90.6889 20.3533C90.5813 20.5487 90.4026 20.7501 90.1503 20.9605C89.9011 21.1695 89.6715 21.3175 89.4655 21.4055C89.2617 21.4949 88.9844 21.5408 88.6405 21.5408H87.0436C86.908 21.5408 86.8118 21.516 86.7542 21.4626C86.6952 21.413 86.6679 21.3453 86.6679 21.2604C86.6679 21.1755 86.6952 21.1056 86.7542 21.0545C86.8118 21.0019 86.908 20.9741 87.0436 20.9741L88.6617 20.9816C88.992 20.9816 89.292 20.8974 89.5579 20.7268C89.8246 20.5585 90.0442 20.3119 90.2177 19.988C90.3162 19.8016 90.367 19.5649 90.367 19.2763V17.5973C89.7617 18.4202 88.9829 18.8291 88.0292 18.8291C87.2565 18.8291 86.5876 18.545 86.0255 17.9746C85.4649 17.4034 85.1831 16.7164 85.1831 15.9123C85.1831 15.1096 85.4649 14.4242 86.0255 13.8545C86.5868 13.2863 87.2565 13.0022 88.0292 13.0022C88.9814 13.0007 89.7609 13.4095 90.3662 14.2257ZM81.8385 16.1843C81.5742 16.1092 81.2946 16.0551 80.9999 16.0182C80.7045 15.9844 80.3924 15.9664 80.0651 15.9664C79.2478 15.9664 78.6076 16.14 78.1455 16.491C77.7971 16.7525 77.6228 17.0659 77.6228 17.4304C77.6228 17.7694 77.7554 18.0527 78.0221 18.282C78.2895 18.5149 78.6758 18.6307 79.1879 18.6307C79.6742 18.6307 80.1273 18.533 80.5469 18.3391C80.9643 18.1452 81.3946 17.8385 81.8393 17.4154V16.1843H81.8385ZM81.8385 18.9689V18.1625C81.0181 18.8456 80.1454 19.1891 79.2121 19.1891C78.5357 19.1891 78.0084 19.0185 77.6281 18.681C77.2478 18.3391 77.0577 17.9235 77.0577 17.4304C77.0577 16.8885 77.3077 16.4158 77.8092 16.0107C78.3114 15.6071 79.0425 15.4057 80.0045 15.4057C80.2636 15.4057 80.5454 15.4215 80.8492 15.4553C81.1545 15.4876 81.484 15.5395 81.8378 15.6109V14.7052C81.8378 14.3986 81.6939 14.1318 81.4075 13.9056C81.1204 13.6801 80.6916 13.5666 80.1189 13.5666C79.6796 13.5666 79.0652 13.6936 78.272 13.9469C78.1296 13.9928 78.038 14.013 77.997 14.013C77.9258 14.013 77.8645 13.9882 77.8115 13.9334C77.7607 13.8808 77.7357 13.8131 77.7357 13.7327C77.7357 13.6576 77.7577 13.5982 77.8024 13.5538C77.8645 13.4877 78.1183 13.3968 78.5607 13.281C79.2599 13.0946 79.7871 13.0014 80.147 13.0014C80.8575 13.0014 81.4121 13.1766 81.8105 13.5245C82.2082 13.8718 82.4082 14.2671 82.4082 14.706V18.4097H83.1605C83.2998 18.4097 83.3961 18.4345 83.4559 18.4879C83.5135 18.5375 83.543 18.6051 83.543 18.6908C83.543 18.7697 83.5135 18.8359 83.4559 18.8907C83.3961 18.9426 83.2998 18.9696 83.1605 18.9696H81.8385V18.9689ZM74.4313 13.2014V13.7004L70.208 18.4097H74.0207V17.6371C74.0207 17.5026 74.0465 17.4071 74.0995 17.3508C74.1487 17.2936 74.2177 17.2643 74.3033 17.2643C74.3889 17.2643 74.4586 17.2936 74.5116 17.3508C74.5661 17.4071 74.5911 17.5026 74.5911 17.6371L74.5843 18.9689H69.4277V18.4683L73.6306 13.7665H70.1269V14.5271C70.1269 14.6586 70.0997 14.7541 70.0466 14.8135C69.9921 14.8706 69.9254 14.8999 69.8451 14.8999C69.7603 14.8999 69.6914 14.8706 69.6368 14.8135C69.5838 14.7541 69.5573 14.6586 69.5573 14.5271V13.2014H74.4313Z" fill="#0028C8"/>
<path d="M200.876 24.2359H64.3144V40.5336H200.877V24.2359H200.876ZM63.9326 23.4783H201.258H201.64V23.8571V40.9117V41.2904H201.258H63.9326H63.5508V40.9117V23.8571V23.4783H63.9326Z" fill="#0028C8"/>
<path d="M170.486 7.18041H64.3144V23.4782H170.486V7.18041ZM63.9326 6.42358H170.867H171.249V6.80237V23.8562V24.235H170.867H63.9326H63.5508V23.8562V6.80237V6.42358H63.9326Z" fill="#0028C8"/>
</svg>
